<svg xmlns="http://www.w3.org/2000/svg" xmlns:xlink="http://www.w3.org/1999/xlink" width="60" height="60" viewBox="0 0 60 60"><defs><clipPath id="a"><rect width="36.013" height="36.858" fill="#423075"/></clipPath></defs><g transform="translate(-285 -1205)"><g transform="translate(0 -550)"><circle cx="30" cy="30" r="30" transform="translate(285 1755)" fill="#ffdad2"/></g><g transform="translate(-10.389 57.75)"><g transform="translate(311.389 1158.25)"><path d="M1.826,1.826H24.344V35.033H1.826ZM0,36.858H26.169V0H0Z" fill="#423075"/><rect width="24.591" height="1.826" transform="translate(0.666 17.516)" fill="#423075"/><g clip-path="url(#a)"><path d="M128.686,88.836a10.4,10.4,0,1,1,10.4-10.4,10.414,10.414,0,0,1-10.4,10.4m0-18.979a8.577,8.577,0,1,0,8.577,8.577,8.587,8.587,0,0,0-8.577-8.577" transform="translate(-109.689 -63.088)" fill="#423075"/><rect width="1.826" height="5.913" transform="matrix(0.707, -0.707, 0.707, 0.707, 24.954, 22.49)" fill="#423075"/><path d="M370.142,323.264a3.1,3.1,0,0,1-2.2-.91l-4.218-4.218,4.535-4.535,4.085,4.085a3.3,3.3,0,0,1,0,4.669h0a3.1,3.1,0,0,1-2.2.91m-3.563-5.128,2.79,2.79a1.094,1.094,0,0,0,1.545,0,1.282,1.282,0,0,0,0-1.812l-2.657-2.657Z" transform="translate(-337.296 -290.816)" fill="#423075"/></g></g></g></g></svg>