<svg xmlns="http://www.w3.org/2000/svg" xmlns:xlink="http://www.w3.org/1999/xlink" width="50" height="49.754" viewBox="0 0 50 49.754"><defs><clipPath id="a"><rect width="50" height="49.754" fill="none"/></clipPath></defs><g clip-path="url(#a)"><path d="M30.159,147.6H27.284A2.206,2.206,0,0,0,29.49,145.4v-2.777a2.206,2.206,0,0,0-2.206-2.206H7.131a2.206,2.206,0,0,0-2.206,2.206V145.4A2.206,2.206,0,0,0,7.131,147.6H6.295a2.206,2.206,0,0,0-2.206,2.206v2.777a2.206,2.206,0,0,0,2.2,2.206H2.206A2.206,2.206,0,0,0,0,157v2.777a2.206,2.206,0,0,0,2.206,2.206H4.218a2.206,2.206,0,0,0-2.206,2.206v2.777a2.206,2.206,0,0,0,2.206,2.206H2.709A2.206,2.206,0,0,0,.5,171.375v2.777a2.206,2.206,0,0,0,2.206,2.206H26.574a2.206,2.206,0,0,0,2.206-2.206v-2.777a2.206,2.206,0,0,0-2.206-2.206h1.509a2.206,2.206,0,0,0,2.206-2.206v-2.777a2.206,2.206,0,0,0-2.206-2.206H26.071a2.206,2.206,0,0,0,2.206-2.206V157a2.206,2.206,0,0,0-2.2-2.206h4.078a2.206,2.206,0,0,0,2.206-2.206v-2.777A2.206,2.206,0,0,0,30.159,147.6Z" transform="translate(0 -126.701)" fill="#fff"/><path d="M236.584,218.932a14.138,14.138,0,1,1-14.138,14.138,14.138,14.138,0,0,1,14.138-14.138" transform="translate(-200.723 -197.552)" fill="#fff"/><path d="M328.649,295.243c-.259-.075-.525-.155-.789-.238V291.76a3.1,3.1,0,0,1,1.292.473.732.732,0,0,0,.881-1.17,4.632,4.632,0,0,0-2.173-.777v-.633a.732.732,0,0,0-1.465,0v.68c-.141.024-.286.054-.433.09a3.061,3.061,0,0,0-2.349,2.4,2.359,2.359,0,0,0,1.034,2.413,8.671,8.671,0,0,0,1.748.821v4.111a4.224,4.224,0,0,1-2.09-.606.732.732,0,0,0-.695,1.29,5.6,5.6,0,0,0,2.785.782v.719a.732.732,0,0,0,1.465,0v-.767a3.73,3.73,0,0,0,3.294-3.009A3.074,3.074,0,0,0,328.649,295.243Zm-3.207-1.238a.907.907,0,0,1-.384-.941,1.573,1.573,0,0,1,1.256-1.219l.08-.018v2.659a6.128,6.128,0,0,1-.953-.48m4.261,4.369a2.223,2.223,0,0,1-1.843,1.721v-3.559l.38.112c1.041.3,1.575.932,1.464,1.725" transform="translate(-291.66 -260.706)" fill="#5b4794"/><path d="M271.569,259.046a10,10,0,1,0,10,10,10.011,10.011,0,0,0-10-10m0,18.534a8.535,8.535,0,1,1,8.535-8.535,8.544,8.544,0,0,1-8.535,8.535" transform="translate(-236.025 -233.749)" fill="#5b4794"/><path d="M364.82,132.313l.056.209h0a2.193,2.193,0,0,0,2.112,1.619,2.166,2.166,0,0,0,.417-.041l2.3-.451a2.184,2.184,0,0,0,1.69-2.709l-.139-.52a2.184,2.184,0,0,0-2.818-1.5l-2.221.761A2.191,2.191,0,0,0,364.82,132.313Zm1.877-1.246,2.221-.761a.72.72,0,0,1,.928.494l.139.52a.72.72,0,0,1-.557.892l-2.3.451a.721.721,0,0,1-.833-.52l-.056-.209A.722.722,0,0,1,366.7,131.067Z" transform="translate(-329.126 -116.224)" fill="#5b4794"/><path d="M324.384,53.953a2.191,2.191,0,0,0,2.98.1l1.77-1.543a2.184,2.184,0,0,0,.109-3.191l-.38-.38a2.184,2.184,0,0,0-3.191.109l-1.543,1.77a2.191,2.191,0,0,0,.1,2.98Zm.849-2.17,1.543-1.77a.712.712,0,0,1,.518-.246h.026a.712.712,0,0,1,.508.211l.38.38a.72.72,0,0,1-.036,1.051l-1.77,1.543a.722.722,0,0,1-.982-.034l-.153-.153A.722.722,0,0,1,325.233,51.783Z" transform="translate(-291.992 -43.584)" fill="#5b4794"/><path d="M271.547,70.794h0Z" transform="translate(-245.029 -63.881)"/><path d="M254.448,9.255l.209.056a2.17,2.17,0,0,0,.562.074,2.193,2.193,0,0,0,2.07-1.476l.761-2.221a2.184,2.184,0,0,0-1.5-2.818l-.519-.139a2.184,2.184,0,0,0-2.709,1.69l-.451,2.3A2.191,2.191,0,0,0,254.448,9.255Zm-.141-2.248.451-2.3a.721.721,0,0,1,.7-.582.728.728,0,0,1,.188.025l.519.139a.72.72,0,0,1,.494.928L255.9,7.434a.722.722,0,0,1-.867.462h0l-.209-.056A.722.722,0,0,1,254.307,7.006Z" transform="translate(-228.139 -2.397)" fill="#5b4794"/><path d="M46.068,149.174h0a.732.732,0,1,0-1.066,1,12.99,12.99,0,1,1-2.1-1.8.732.732,0,1,0,.831-1.206,14.464,14.464,0,0,0-11.649-2.123,2.862,2.862,0,0,0-2.075-.885H29.72a2.856,2.856,0,0,0,.371-1.409v-2.7a2.877,2.877,0,0,0-2.874-2.874H17.361l.4,1.465h9.451a1.411,1.411,0,0,1,1.409,1.409v2.7a1.411,1.411,0,0,1-1.409,1.409H21.681l-.922,1.465h9.249a1.409,1.409,0,0,1,.212.017,14.539,14.539,0,0,0-6.749,5.5H17.726l-.476,1.465h5.373a14.35,14.35,0,0,0-1.5,5.513H2.874a1.411,1.411,0,0,1-1.409-1.409v-2.7a1.41,1.41,0,0,1,1.409-1.408h9.773l-.61-1.465H2.874A2.877,2.877,0,0,0,0,154.014v2.7a2.878,2.878,0,0,0,2.352,2.826,2.856,2.856,0,0,0-.4,1.458v2.7a2.856,2.856,0,0,0,.468,1.568,2.878,2.878,0,0,0-1.932,2.715v2.7a2.877,2.877,0,0,0,2.874,2.874H26.527a2.884,2.884,0,0,0,2.541-1.533,14.455,14.455,0,0,0,17-22.834M3.418,160.993a1.411,1.411,0,0,1,1.409-1.409H21.1a14.359,14.359,0,0,0,1.3,5.514H4.827a1.411,1.411,0,0,1-1.409-1.409Zm23.109,11.083H3.362a1.411,1.411,0,0,1-1.409-1.409v-2.7a1.411,1.411,0,0,1,1.409-1.409H23.175a14.57,14.57,0,0,0,4.618,4.721,1.413,1.413,0,0,1-1.266.793" transform="translate(0 -123.787)" fill="#5b4794"/><path d="M35.4,137.106a3.4,3.4,0,0,0-2.184,2.338c0,.026-.01.052-.015.079a2.887,2.887,0,0,0-.036.457v2.7a2.856,2.856,0,0,0,.468,1.568,2.878,2.878,0,0,0-1.932,2.715v2.7a2.877,2.877,0,0,0,2.874,2.874H46.829v-1.465H34.572a1.411,1.411,0,0,1-1.409-1.409v-2.7a1.411,1.411,0,0,1,1.409-1.409H46.829v-1.465H36.037a1.411,1.411,0,0,1-1.409-1.409v-2.7a1.411,1.411,0,0,1,1.409-1.409H46.829v-1.465H35.4Z" transform="translate(-28.602 -123.717)" fill="#5b4794"/><path d="M44.5,9.715V21.049H42.566a3.055,3.055,0,0,0-2.646,4.583l6.21,10.754a3.055,3.055,0,0,0,5.292,0l6.21-10.754a3.055,3.055,0,0,0-2.646-4.583H53.048V9.715a1.923,1.923,0,0,0-1.923-1.923h-4.7A1.923,1.923,0,0,0,44.5,9.715" transform="translate(-35.648 -7.031)" fill="#f6f6f6"/><path d="M135.011,7.79h1.769A1.922,1.922,0,0,1,138.7,9.712V21.048h1.939a3.055,3.055,0,0,1,2.645,4.583l-6.209,10.754a3.027,3.027,0,0,1-2.646,1.527,2.04,2.04,0,0,0,1.772-1.527l4.16-10.754c.789-2.037-.2-4.583-1.772-4.583h-.8a1.5,1.5,0,0,1-1.5-1.5V9.713C136.3,8.651,135.722,7.79,135.011,7.79Z" transform="translate(-121.303 -7.029)" fill="#f6f6f6"/><path d="M41.731,31.643a3.87,3.87,0,0,1-.839-.092,3.761,3.761,0,0,1-2.464-1.815l-6.21-10.754a3.816,3.816,0,0,1,3.3-5.725H36.7V2.684A2.687,2.687,0,0,1,39.383,0h4.7a2.688,2.688,0,0,1,2.683,2.684V13.257h1.178A3.773,3.773,0,0,1,50.669,14.4a3.834,3.834,0,0,1,1.084,2.946,3.787,3.787,0,0,1-.5,1.635l-6.21,10.754a3.8,3.8,0,0,1-3.307,1.907M35.523,14.779a2.295,2.295,0,0,0-1.987,3.442l6.21,10.754a2.256,2.256,0,0,0,1.477,1.091,2.315,2.315,0,0,0,1.825-.354,2.281,2.281,0,0,0,.673-.737l6.21-10.754a2.28,2.28,0,0,0,.3-.983h0a2.311,2.311,0,0,0-.656-1.775,2.264,2.264,0,0,0-1.636-.684h-2.7V2.684a1.167,1.167,0,0,0-1.162-1.162h-4.7a1.164,1.164,0,0,0-1.162,1.162V14.779Z" transform="translate(-28.605)" fill="#5b4794"/></g></svg>