<svg xmlns="http://www.w3.org/2000/svg" xmlns:xlink="http://www.w3.org/1999/xlink" width="60" height="60" viewBox="0 0 60 60"><defs><clipPath id="a"><rect width="35.891" height="36.733" fill="#423075"/></clipPath></defs><g transform="translate(-285 -1117)"><g transform="translate(0 -550)"><circle cx="30" cy="30" r="30" transform="translate(285 1667)" fill="#ffdad2"/></g><g transform="translate(301 1129)"><path d="M1.82,1.82H24.261V34.914H1.82ZM0,36.733H26.081V0H0Z" fill="#423075"/><rect width="24.507" height="1.819" transform="translate(0.663 28.941)" fill="#423075"/><path d="M124.687,23.2,118.1,16.81l1.882-2.128-6.74-6.407,3.669-3.6,1.274,1.3-2.324,2.28,6.647,6.319-1.894,2.141,5.341,5.183Z" transform="translate(-105.042 -4.337)" fill="#423075"/><path d="M215.6,185.919h-6.012V184.1h4.192v-4.283H215.6Z" transform="translate(-194.416 -166.796)" fill="#423075"/><g clip-path="url(#a)"><path d="M128.65,88.766A10.367,10.367,0,1,1,139.018,78.4,10.379,10.379,0,0,1,128.65,88.766m0-18.915A8.548,8.548,0,1,0,137.2,78.4a8.557,8.557,0,0,0-8.548-8.548" transform="translate(-109.718 -63.105)" fill="#423075"/><rect width="1.819" height="5.893" transform="matrix(0.707, -0.707, 0.707, 0.707, 24.87, 22.414)" fill="#423075"/><path d="M370.12,323.232a3.093,3.093,0,0,1-2.193-.907l-4.2-4.2,4.52-4.52,4.071,4.071a3.29,3.29,0,0,1,0,4.653h0a3.092,3.092,0,0,1-2.193.907m-3.55-5.111,2.781,2.781a1.09,1.09,0,0,0,1.54,0,1.277,1.277,0,0,0,0-1.806l-2.648-2.648Z" transform="translate(-337.386 -290.893)" fill="#423075"/></g></g></g></svg>