<svg xmlns="http://www.w3.org/2000/svg" width="60" height="60" viewBox="0 0 60 60"><g transform="translate(-285 -1025)"><g transform="translate(0 -550)"><path d="M30,0A30,30,0,1,1,0,30,30,30,0,0,1,30,0Z" transform="translate(285 1575)" fill="#ffdad2"/></g><g transform="translate(295.776 1037)"><path d="M40.266,26.939,36.2,22.875l-1.514,1.514-2.31-2.31a10.5,10.5,0,0,0-.722-14.054l-.05-.048V0H5.223V36.733H31.607V24.351l1.56,1.56-1.514,1.514,4.063,4.063a3.217,3.217,0,0,0,4.55-4.55Zm-32.891-.4,3.717-3.717,2.133,2.133,2.864-2.864a10.575,10.575,0,0,0,.714.79,10.515,10.515,0,0,0,12.651,1.689v4.308H7.375ZM32.581,15.453a8.351,8.351,0,0,1-14.255,5.9,8.394,8.394,0,0,1-.7-.8l2.115-2.115L21.49,20.2l4.764-4.764v2.676h2.152V11.723H22.021v2.152h2.746L21.49,17.152,19.736,15.4l-3.229,3.229a8.35,8.35,0,1,1,16.074-3.175Zm-3.126-13.3V6.341A10.5,10.5,0,0,0,14.886,20.248l-1.661,1.661-2.133-2.133L7.375,23.493V2.152ZM7.375,34.581V31.029h22.08v3.552Zm31.369-4.615a1.066,1.066,0,0,1-1.506,0L34.7,27.425,36.2,25.919l2.541,2.541A1.066,1.066,0,0,1,38.744,29.967Z" fill="#423075"/></g></g></svg>