<svg xmlns="http://www.w3.org/2000/svg" width="1030.5" height="483" viewBox="0 0 1030.5 483">
  <g id="Grupo_154528" data-name="Grupo 154528" transform="translate(-284.499 -890)">
    <path id="Trazado_595547" data-name="Trazado 595547" d="M0,0H1030V483H0Z" transform="translate(285 890)" fill="none"/>
    <path id="Trazado_595548" data-name="Trazado 595548" d="M176.976,2.345a7.849,7.849,0,0,0-1.263,1.642c-2.015,3.492-1.261,8.355,2.089,11.719,3.916,3.934,9.9,4.332,13.356.887s3.093-9.427-.824-13.362A10.659,10.659,0,0,0,182.857,0,8.227,8.227,0,0,0,176.976,2.345ZM124.5,31.043a159.4,159.4,0,0,0-20.415,4.843A140.408,140.408,0,0,0,49.932,66.758,157.157,157.157,0,0,0,20.9,103.313,163.032,163.032,0,0,0,3.19,148.422,139.661,139.661,0,0,0,.236,169.877a135.71,135.71,0,0,0,.492,22.042,142.929,142.929,0,0,0,2.886,17.23c10.513,40.412,34,83.58,77.177,96.537,17.966,5.406,36.55,2.821,53.011-5.111a91.7,91.7,0,0,0,15.654-9.617,97.2,97.2,0,0,0,34.431-49.314c2.337-7.342,3.4-15.773,5.865-23.318C192.767,206,203.417,198.676,215.6,196c15.185-3.541,29.786-4.958,43.671-10.931a73.233,73.233,0,0,0,15.639-8.837,64.576,64.576,0,0,0,14.075-14.71,82.32,82.32,0,0,0,10.638-22.128,51.732,51.732,0,0,0,2.487-19.911c-3.8-33.006-33.233-54.629-61.134-69.1a188.782,188.782,0,0,0-87.2-21.8A174.262,174.262,0,0,0,124.5,31.043Zm85.448,182.35a24.521,24.521,0,0,0-4.49,5.636c-4.471,7.744-4.074,17.161,1.673,23.3,7.246,7.744,20.258,7.343,29.062-.9s10.063-21.195,2.817-28.938a17.977,17.977,0,0,0-13.308-5.555A23.252,23.252,0,0,0,209.95,213.393Z" transform="translate(587.256 1323.991) rotate(180)" fill="#e8e8e8" stroke="rgba(0,0,0,0)" stroke-width="1" opacity="0.7"/>
    <g id="Grupo_154406" data-name="Grupo 154406" transform="translate(381.579 908.476)" opacity="0.42" style="isolation: isolate">
      <g id="Grupo_80112" data-name="Grupo 80112" transform="translate(27.843 0.52)">
        <path id="Trazado_113531" data-name="Trazado 113531" d="M1647.769-1584.056a128.179,128.179,0,0,1,38.106-2.882,100.514,100.514,0,0,1,30.782,7.526,114.1,114.1,0,0,1,24.083,14.2c18.856,14.07,32.127,32.648,48.718,50.36,13.093,14.341,31.251,23,50.216,17.466,12.094-2.543,24.283-7.678,36-10.241,31.467-7.14,64.037-4.5,93.268,8.032a142.775,142.775,0,0,1,25.145,13.615c23.5,16.017,41.449,39.055,48.144,67.481,16.138,68.285-23.771,133.536-70.065,179.159a222.05,222.05,0,0,1-20.978,17.3,211.3,211.3,0,0,1-29.329,17.818,217.461,217.461,0,0,1-31.219,12.716c-47.312,14.576-98.836,15.19-146.455.548-31.427-9.711-59.862-26.825-83.759-48.973a248,248,0,0,1-22.413-23.749c-39.906-48.118-61.963-109.188-64.579-172.053-2.212-48.87,4.031-105.371,45.563-136.18A80.475,80.475,0,0,1,1647.769-1584.056Z" transform="translate(-1573.043 1587.324)" fill="#ffdad2"/>
      </g>
      <ellipse id="Elipse_4714" data-name="Elipse 4714" cx="33.979" cy="29.889" rx="33.979" ry="29.889" transform="translate(304.619 76.949) rotate(-163.103)" fill="#ffdad2"/>
      <ellipse id="Elipse_4715" data-name="Elipse 4715" cx="13.762" cy="15.645" rx="13.762" ry="15.645" transform="translate(26.569 305.314) rotate(-164.867)" fill="#ffdad2"/>
    </g>
    <path id="Trazado_595549" data-name="Trazado 595549" d="M16.5,0h197a16.5,16.5,0,0,1,0,33H16.5a16.5,16.5,0,0,1,0-33Z" transform="translate(685 928.047)" fill="#5b4794"/>
    <path id="Trazado_595550" data-name="Trazado 595550" d="M7.859-4.93h-4.5v3.047H8.641V0H1.016V-11.375H8.625v1.9H3.359v2.711h4.5Zm6.586,2.594a.727.727,0,0,0-.41-.652,4.659,4.659,0,0,0-1.316-.426Q9.7-4.047,9.7-5.977a2.323,2.323,0,0,1,.934-1.879,3.766,3.766,0,0,1,2.441-.754,4.053,4.053,0,0,1,2.574.758,2.388,2.388,0,0,1,.965,1.969H14.359a1.092,1.092,0,0,0-.312-.8A1.322,1.322,0,0,0,13.07-7a1.351,1.351,0,0,0-.883.258.814.814,0,0,0-.312.656.7.7,0,0,0,.355.605,3.657,3.657,0,0,0,1.2.4,9.8,9.8,0,0,1,1.422.379A2.336,2.336,0,0,1,16.641-2.43a2.2,2.2,0,0,1-.992,1.871,4.28,4.28,0,0,1-2.562.715A4.47,4.47,0,0,1,11.2-.223,3.166,3.166,0,0,1,9.906-1.262a2.414,2.414,0,0,1-.469-1.426h2.141a1.179,1.179,0,0,0,.445.922,1.766,1.766,0,0,0,1.109.32,1.635,1.635,0,0,0,.98-.246A.766.766,0,0,0,14.445-2.336Zm6.352-8.2v2.078h1.445V-6.8H20.8v4.219a1.007,1.007,0,0,0,.18.672.9.9,0,0,0,.688.2,3.6,3.6,0,0,0,.664-.055V-.047a4.648,4.648,0,0,1-1.367.2,2.156,2.156,0,0,1-2.422-2.4V-6.8H17.3V-8.453h1.234v-2.078ZM28.4,0a2.507,2.507,0,0,1-.227-.758,2.732,2.732,0,0,1-2.133.914A3,3,0,0,1,23.98-.562a2.312,2.312,0,0,1-.816-1.812,2.389,2.389,0,0,1,1-2.062,4.915,4.915,0,0,1,2.879-.727h1.039v-.484a1.393,1.393,0,0,0-.3-.937,1.183,1.183,0,0,0-.949-.352,1.345,1.345,0,0,0-.895.273.929.929,0,0,0-.324.75H23.352A2.268,2.268,0,0,1,23.8-7.273a3,3,0,0,1,1.281-.98,4.669,4.669,0,0,1,1.859-.355,3.689,3.689,0,0,1,2.48.785,2.747,2.747,0,0,1,.918,2.207v3.664a4.041,4.041,0,0,0,.336,1.82V0ZM26.531-1.57a1.945,1.945,0,0,0,.922-.223,1.462,1.462,0,0,0,.625-.6V-3.844h-.844q-1.7,0-1.8,1.172l-.008.133a.9.9,0,0,0,.3.7A1.153,1.153,0,0,0,26.531-1.57Zm5.2-2.719a5.094,5.094,0,0,1,.887-3.148,2.877,2.877,0,0,1,2.426-1.172,2.589,2.589,0,0,1,2.039.922V-12h2.266V0H37.3L37.2-.9A2.657,2.657,0,0,1,35.023.156,2.869,2.869,0,0,1,32.629-1.02,5.258,5.258,0,0,1,31.727-4.289Zm2.258.168A3.337,3.337,0,0,0,34.4-2.3a1.349,1.349,0,0,0,1.2.634,1.511,1.511,0,0,0,1.477-.884V-5.889a1.489,1.489,0,0,0-1.461-.884Q33.984-6.773,33.984-4.121ZM40.742-4.3a5.013,5.013,0,0,1,.484-2.242A3.546,3.546,0,0,1,42.621-8.07a4.069,4.069,0,0,1,2.113-.539,3.849,3.849,0,0,1,2.793,1.047,4.2,4.2,0,0,1,1.207,2.844l.016.578A4.418,4.418,0,0,1,47.664-1.02,3.775,3.775,0,0,1,44.75.156a3.793,3.793,0,0,1-2.918-1.172A4.5,4.5,0,0,1,40.742-4.2ZM43-4.144A3.16,3.16,0,0,0,43.453-2.3a1.5,1.5,0,0,0,1.3.638,1.5,1.5,0,0,0,1.281-.63,3.457,3.457,0,0,0,.461-2.015,3.128,3.128,0,0,0-.461-1.831,1.5,1.5,0,0,0-1.3-.649,1.474,1.474,0,0,0-1.281.646A3.516,3.516,0,0,0,43-4.144ZM54.719-2.336a.727.727,0,0,0-.41-.652,4.659,4.659,0,0,0-1.316-.426q-3.016-.633-3.016-2.562a2.323,2.323,0,0,1,.934-1.879,3.766,3.766,0,0,1,2.441-.754,4.053,4.053,0,0,1,2.574.758,2.388,2.388,0,0,1,.965,1.969H54.633a1.092,1.092,0,0,0-.312-.8A1.322,1.322,0,0,0,53.344-7a1.351,1.351,0,0,0-.883.258.814.814,0,0,0-.312.656.7.7,0,0,0,.355.605,3.657,3.657,0,0,0,1.2.4,9.8,9.8,0,0,1,1.422.379A2.336,2.336,0,0,1,56.914-2.43a2.2,2.2,0,0,1-.992,1.871,4.28,4.28,0,0,1-2.562.715,4.47,4.47,0,0,1-1.887-.379A3.166,3.166,0,0,1,50.18-1.262a2.414,2.414,0,0,1-.469-1.426h2.141a1.179,1.179,0,0,0,.445.922,1.766,1.766,0,0,0,1.109.32,1.635,1.635,0,0,0,.98-.246A.766.766,0,0,0,54.719-2.336ZM62.9,0V-6.8H61.641V-8.453H62.9v-.391a3.17,3.17,0,0,1,.98-2.457,3.945,3.945,0,0,1,2.723-.863,9.031,9.031,0,0,1,2.563.461l-.328,1.867a10,10,0,0,0-1.187-.293,5.835,5.835,0,0,0-.906-.066q-1.578,0-1.578,1.4v.344h1.664V-6.8H65.164V0Zm7.32,0H67.953V-8.453h2.266Zm3.945-8.453.07.977a2.951,2.951,0,0,1,2.43-1.133,2.453,2.453,0,0,1,2,.789,3.682,3.682,0,0,1,.672,2.359V0H77.078V-5.406a1.465,1.465,0,0,0-.312-1.043,1.4,1.4,0,0,0-1.039-.324,1.553,1.553,0,0,0-1.43.813V0H72.039V-8.453ZM85.945,0a2.507,2.507,0,0,1-.227-.758,2.732,2.732,0,0,1-2.133.914,3,3,0,0,1-2.059-.719,2.312,2.312,0,0,1-.816-1.812,2.389,2.389,0,0,1,1-2.062,4.915,4.915,0,0,1,2.879-.727h1.039v-.484a1.393,1.393,0,0,0-.3-.937,1.183,1.183,0,0,0-.949-.352,1.345,1.345,0,0,0-.895.273.929.929,0,0,0-.324.75H80.9a2.268,2.268,0,0,1,.453-1.359,3,3,0,0,1,1.281-.98,4.669,4.669,0,0,1,1.859-.355,3.689,3.689,0,0,1,2.48.785,2.747,2.747,0,0,1,.918,2.207v3.664a4.041,4.041,0,0,0,.336,1.82V0ZM84.078-1.57A1.945,1.945,0,0,0,85-1.793a1.462,1.462,0,0,0,.625-.6V-3.844h-.844q-1.7,0-1.8,1.172l-.008.133a.9.9,0,0,0,.3.7A1.153,1.153,0,0,0,84.078-1.57ZM91.7-8.453l.07.977A2.951,2.951,0,0,1,94.2-8.609a2.453,2.453,0,0,1,2,.789,3.682,3.682,0,0,1,.672,2.359V0H94.617V-5.406A1.465,1.465,0,0,0,94.3-6.449a1.4,1.4,0,0,0-1.039-.324,1.553,1.553,0,0,0-1.43.813V0H89.578V-8.453Zm10.4,6.789a1.481,1.481,0,0,0,1.016-.344,1.2,1.2,0,0,0,.406-.914h2.117a2.9,2.9,0,0,1-.469,1.574A3.093,3.093,0,0,1,103.91-.238a3.949,3.949,0,0,1-1.77.395A3.67,3.67,0,0,1,99.281-1,4.56,4.56,0,0,1,98.234-4.18v-.148a4.508,4.508,0,0,1,1.039-3.117,3.627,3.627,0,0,1,2.852-1.164,3.555,3.555,0,0,1,2.543.9,3.2,3.2,0,0,1,.973,2.4h-2.117a1.551,1.551,0,0,0-.406-1.072,1.354,1.354,0,0,0-1.031-.412,1.36,1.36,0,0,0-1.191.575,3.333,3.333,0,0,0-.4,1.866v.235a3.375,3.375,0,0,0,.4,1.878A1.377,1.377,0,0,0,102.1-1.664ZM109.313,0h-2.266V-8.453h2.266Zm-2.4-10.641a1.112,1.112,0,0,1,.34-.836,1.277,1.277,0,0,1,.926-.328,1.28,1.28,0,0,1,.922.328,1.105,1.105,0,0,1,.344.836,1.108,1.108,0,0,1-.348.844,1.283,1.283,0,0,1-.918.328,1.283,1.283,0,0,1-.918-.328A1.108,1.108,0,0,1,106.914-10.641Zm8.148,10.8a4.15,4.15,0,0,1-3.027-1.141,4.054,4.054,0,0,1-1.168-3.039v-.219a5.106,5.106,0,0,1,.492-2.277,3.612,3.612,0,0,1,1.395-1.547,3.914,3.914,0,0,1,2.059-.543,3.508,3.508,0,0,1,2.73,1.094,4.444,4.444,0,0,1,1,3.1v.922h-5.383a2.1,2.1,0,0,0,.66,1.328,2,2,0,0,0,1.395.5,2.437,2.437,0,0,0,2.039-.945l1.109,1.242a3.389,3.389,0,0,1-1.375,1.121A4.511,4.511,0,0,1,115.063.156ZM114.8-6.789a1.411,1.411,0,0,0-1.09.455,2.357,2.357,0,0,0-.535,1.3h3.141v-.181a1.681,1.681,0,0,0-.406-1.165A1.456,1.456,0,0,0,114.8-6.789Zm9.766.453a6.134,6.134,0,0,0-.812-.062,1.654,1.654,0,0,0-1.68.867V0H119.82V-8.453h2.133l.063,1.008A2.092,2.092,0,0,1,123.9-8.609a2.366,2.366,0,0,1,.7.1Zm.453,2.031a5.013,5.013,0,0,1,.484-2.242A3.546,3.546,0,0,1,126.9-8.07a4.069,4.069,0,0,1,2.113-.539,3.849,3.849,0,0,1,2.793,1.047,4.2,4.2,0,0,1,1.207,2.844l.016.578a4.418,4.418,0,0,1-1.086,3.121A3.775,3.775,0,0,1,129.031.156a3.793,3.793,0,0,1-2.918-1.172,4.5,4.5,0,0,1-1.09-3.187Zm2.258.16a3.16,3.16,0,0,0,.453,1.843,1.5,1.5,0,0,0,1.3.638,1.5,1.5,0,0,0,1.281-.63,3.457,3.457,0,0,0,.461-2.015,3.128,3.128,0,0,0-.461-1.831,1.5,1.5,0,0,0-1.3-.649,1.474,1.474,0,0,0-1.281.646A3.516,3.516,0,0,0,127.281-4.144ZM139-2.336a.727.727,0,0,0-.41-.652,4.659,4.659,0,0,0-1.316-.426q-3.016-.633-3.016-2.562a2.323,2.323,0,0,1,.934-1.879,3.766,3.766,0,0,1,2.441-.754,4.053,4.053,0,0,1,2.574.758,2.388,2.388,0,0,1,.965,1.969h-2.258a1.092,1.092,0,0,0-.312-.8A1.322,1.322,0,0,0,137.625-7a1.351,1.351,0,0,0-.883.258.814.814,0,0,0-.312.656.7.7,0,0,0,.355.605,3.657,3.657,0,0,0,1.2.4,9.8,9.8,0,0,1,1.422.379A2.336,2.336,0,0,1,141.2-2.43,2.205,2.205,0,0,1,140.2-.559a4.28,4.28,0,0,1-2.562.715,4.47,4.47,0,0,1-1.887-.379,3.166,3.166,0,0,1-1.293-1.039,2.414,2.414,0,0,1-.469-1.426h2.141a1.179,1.179,0,0,0,.445.922,1.766,1.766,0,0,0,1.109.32,1.635,1.635,0,0,0,.98-.246A.766.766,0,0,0,139-2.336Z" transform="translate(729 950.506)" fill="#fff"/>
    <path id="Trazado_595551" data-name="Trazado 595551" d="M0,0H294.723V35.771H0Z" transform="translate(285.277 1049.047)" fill="#cc573c"/>
    <path id="Trazado_595552" data-name="Trazado 595552" d="M0,0H294.723V35.771H0Z" transform="translate(1020 1049.047)" fill="#cc573c"/>
    <path id="Trazado_595553" data-name="Trazado 595553" d="M0,0H294.723V35.771H0Z" transform="translate(653 1049.047)" fill="#cc573c"/>
    <path id="Trazado_595554" data-name="Trazado 595554" d="M0,0H294.723V16.4H0Z" transform="translate(285.277 1085.047)" fill="#f2edff"/>
    <path id="Trazado_595555" data-name="Trazado 595555" d="M0,0H294.723V16.4H0Z" transform="translate(1020 1085.047)" fill="#f2edff"/>
    <path id="Trazado_595556" data-name="Trazado 595556" d="M0,0H294.723V16.4H0Z" transform="translate(653 1085.047)" fill="#f2edff"/>
    <path id="Trazado_595557" data-name="Trazado 595557" d="M7.859-4.93h-4.5v3.047H8.641V0H1.016V-11.375H8.625v1.9H3.359v2.711h4.5Zm6.586,2.594a.727.727,0,0,0-.41-.652,4.659,4.659,0,0,0-1.316-.426Q9.7-4.047,9.7-5.977a2.323,2.323,0,0,1,.934-1.879,3.766,3.766,0,0,1,2.441-.754,4.053,4.053,0,0,1,2.574.758,2.388,2.388,0,0,1,.965,1.969H14.359a1.092,1.092,0,0,0-.312-.8A1.322,1.322,0,0,0,13.07-7a1.351,1.351,0,0,0-.883.258.814.814,0,0,0-.312.656.7.7,0,0,0,.355.605,3.657,3.657,0,0,0,1.2.4,9.8,9.8,0,0,1,1.422.379A2.336,2.336,0,0,1,16.641-2.43a2.2,2.2,0,0,1-.992,1.871,4.28,4.28,0,0,1-2.562.715A4.47,4.47,0,0,1,11.2-.223,3.166,3.166,0,0,1,9.906-1.262a2.414,2.414,0,0,1-.469-1.426h2.141a1.179,1.179,0,0,0,.445.922,1.766,1.766,0,0,0,1.109.32,1.635,1.635,0,0,0,.98-.246A.766.766,0,0,0,14.445-2.336Zm6.352-8.2v2.078h1.445V-6.8H20.8v4.219a1.007,1.007,0,0,0,.18.672.9.9,0,0,0,.688.2,3.6,3.6,0,0,0,.664-.055V-.047a4.648,4.648,0,0,1-1.367.2,2.156,2.156,0,0,1-2.422-2.4V-6.8H17.3V-8.453h1.234v-2.078ZM28.4,0a2.507,2.507,0,0,1-.227-.758,2.732,2.732,0,0,1-2.133.914A3,3,0,0,1,23.98-.562a2.312,2.312,0,0,1-.816-1.812,2.389,2.389,0,0,1,1-2.062,4.915,4.915,0,0,1,2.879-.727h1.039v-.484a1.393,1.393,0,0,0-.3-.937,1.183,1.183,0,0,0-.949-.352,1.345,1.345,0,0,0-.895.273.929.929,0,0,0-.324.75H23.352A2.268,2.268,0,0,1,23.8-7.273a3,3,0,0,1,1.281-.98,4.669,4.669,0,0,1,1.859-.355,3.689,3.689,0,0,1,2.48.785,2.747,2.747,0,0,1,.918,2.207v3.664a4.041,4.041,0,0,0,.336,1.82V0ZM26.531-1.57a1.945,1.945,0,0,0,.922-.223,1.462,1.462,0,0,0,.625-.6V-3.844h-.844q-1.7,0-1.8,1.172l-.008.133a.9.9,0,0,0,.3.7A1.153,1.153,0,0,0,26.531-1.57Zm5.2-2.719a5.094,5.094,0,0,1,.887-3.148,2.877,2.877,0,0,1,2.426-1.172,2.589,2.589,0,0,1,2.039.922V-12h2.266V0H37.3L37.2-.9A2.657,2.657,0,0,1,35.023.156,2.869,2.869,0,0,1,32.629-1.02,5.258,5.258,0,0,1,31.727-4.289Zm2.258.168A3.337,3.337,0,0,0,34.4-2.3a1.349,1.349,0,0,0,1.2.634,1.511,1.511,0,0,0,1.477-.884V-5.889a1.489,1.489,0,0,0-1.461-.884Q33.984-6.773,33.984-4.121ZM40.742-4.3a5.013,5.013,0,0,1,.484-2.242A3.546,3.546,0,0,1,42.621-8.07a4.069,4.069,0,0,1,2.113-.539,3.849,3.849,0,0,1,2.793,1.047,4.2,4.2,0,0,1,1.207,2.844l.016.578A4.418,4.418,0,0,1,47.664-1.02,3.775,3.775,0,0,1,44.75.156a3.793,3.793,0,0,1-2.918-1.172A4.5,4.5,0,0,1,40.742-4.2ZM43-4.144A3.16,3.16,0,0,0,43.453-2.3a1.5,1.5,0,0,0,1.3.638,1.5,1.5,0,0,0,1.281-.63,3.457,3.457,0,0,0,.461-2.015,3.128,3.128,0,0,0-.461-1.831,1.5,1.5,0,0,0-1.3-.649,1.474,1.474,0,0,0-1.281.646A3.516,3.516,0,0,0,43-4.144Zm10.773-.145a5.094,5.094,0,0,1,.887-3.148,2.877,2.877,0,0,1,2.426-1.172,2.589,2.589,0,0,1,2.039.922V-12h2.266V0H59.352l-.109-.9A2.657,2.657,0,0,1,57.07.156,2.869,2.869,0,0,1,54.676-1.02,5.258,5.258,0,0,1,53.773-4.289Zm2.258.168A3.337,3.337,0,0,0,56.445-2.3a1.349,1.349,0,0,0,1.2.634,1.511,1.511,0,0,0,1.477-.884V-5.889a1.489,1.489,0,0,0-1.461-.884Q56.031-6.773,56.031-4.121Zm11,4.277A4.15,4.15,0,0,1,64-.984a4.054,4.054,0,0,1-1.168-3.039v-.219a5.106,5.106,0,0,1,.492-2.277,3.612,3.612,0,0,1,1.395-1.547,3.914,3.914,0,0,1,2.059-.543,3.508,3.508,0,0,1,2.73,1.094,4.444,4.444,0,0,1,1,3.1v.922H65.125a2.1,2.1,0,0,0,.66,1.328,2,2,0,0,0,1.395.5,2.437,2.437,0,0,0,2.039-.945l1.109,1.242A3.389,3.389,0,0,1,68.953-.246,4.511,4.511,0,0,1,67.031.156Zm-.258-6.945a1.411,1.411,0,0,0-1.09.455,2.357,2.357,0,0,0-.535,1.3h3.141v-.181a1.681,1.681,0,0,0-.406-1.165A1.456,1.456,0,0,0,66.773-6.789ZM81.438-10.25a10.867,10.867,0,0,0-1.25-.078q-1.531,0-1.531,1.3v.57h1.68V-6.8h-1.68V0H76.391V-6.8H75.133V-8.453h1.258v-.656a2.888,2.888,0,0,1,.922-2.262,3.769,3.769,0,0,1,2.563-.793q1.18,0,3.828.25V0H81.438Zm9.2,9.391A2.831,2.831,0,0,1,88.328.156a2.67,2.67,0,0,1-2.074-.781,3.335,3.335,0,0,1-.73-2.289V-8.453h2.258v5.467q0,1.322,1.2,1.322a1.63,1.63,0,0,0,1.578-.8V-8.453h2.266V0H90.7Zm6.281-7.594V.461a3.024,3.024,0,0,1-.742,2.176,2.821,2.821,0,0,1-2.141.777,4.591,4.591,0,0,1-1.117-.133V1.492a4.238,4.238,0,0,0,.711.07q1.023,0,1.023-1.086v-8.93Zm-2.445-2.187a1.112,1.112,0,0,1,.34-.836,1.277,1.277,0,0,1,.926-.328,1.277,1.277,0,0,1,.926.328,1.112,1.112,0,0,1,.34.836,1.108,1.108,0,0,1-.348.844,1.283,1.283,0,0,1-.918.328,1.283,1.283,0,0,1-.918-.328A1.108,1.108,0,0,1,94.477-10.641ZM98.336-4.3a5.013,5.013,0,0,1,.484-2.242,3.546,3.546,0,0,1,1.395-1.523,4.069,4.069,0,0,1,2.113-.539,3.849,3.849,0,0,1,2.793,1.047,4.2,4.2,0,0,1,1.207,2.844l.016.578a4.418,4.418,0,0,1-1.086,3.121A3.775,3.775,0,0,1,102.344.156a3.793,3.793,0,0,1-2.918-1.172A4.5,4.5,0,0,1,98.336-4.2Zm2.258.16a3.16,3.16,0,0,0,.453,1.843,1.5,1.5,0,0,0,1.3.638,1.5,1.5,0,0,0,1.281-.63,3.457,3.457,0,0,0,.461-2.015,3.128,3.128,0,0,0-.461-1.831,1.5,1.5,0,0,0-1.3-.649,1.474,1.474,0,0,0-1.281.646A3.516,3.516,0,0,0,100.594-4.144Zm10.773-.145a5.094,5.094,0,0,1,.887-3.148,2.877,2.877,0,0,1,2.426-1.172,2.589,2.589,0,0,1,2.039.922V-12h2.266V0h-2.039l-.109-.9A2.657,2.657,0,0,1,114.664.156,2.869,2.869,0,0,1,112.27-1.02,5.258,5.258,0,0,1,111.367-4.289Zm2.258.168a3.337,3.337,0,0,0,.414,1.823,1.349,1.349,0,0,0,1.2.634,1.511,1.511,0,0,0,1.477-.884V-5.889a1.489,1.489,0,0,0-1.461-.884Q113.625-6.773,113.625-4.121Zm11,4.277A4.15,4.15,0,0,1,121.6-.984a4.054,4.054,0,0,1-1.168-3.039v-.219a5.106,5.106,0,0,1,.492-2.277,3.612,3.612,0,0,1,1.395-1.547,3.914,3.914,0,0,1,2.059-.543,3.508,3.508,0,0,1,2.73,1.094,4.444,4.444,0,0,1,1,3.1v.922h-5.383a2.1,2.1,0,0,0,.66,1.328,2,2,0,0,0,1.395.5,2.437,2.437,0,0,0,2.039-.945l1.109,1.242a3.389,3.389,0,0,1-1.375,1.121A4.511,4.511,0,0,1,124.625.156Zm-.258-6.945a1.411,1.411,0,0,0-1.09.455,2.357,2.357,0,0,0-.535,1.3h3.141v-.181a1.681,1.681,0,0,0-.406-1.165A1.456,1.456,0,0,0,124.367-6.789ZM137.258.156A4.15,4.15,0,0,1,134.23-.984a4.054,4.054,0,0,1-1.168-3.039v-.219a5.106,5.106,0,0,1,.492-2.277,3.612,3.612,0,0,1,1.395-1.547,3.914,3.914,0,0,1,2.059-.543,3.508,3.508,0,0,1,2.73,1.094,4.444,4.444,0,0,1,1,3.1v.922h-5.383a2.1,2.1,0,0,0,.66,1.328,2,2,0,0,0,1.395.5,2.437,2.437,0,0,0,2.039-.945l1.109,1.242A3.389,3.389,0,0,1,139.18-.246,4.511,4.511,0,0,1,137.258.156ZM137-6.789a1.411,1.411,0,0,0-1.09.455,2.357,2.357,0,0,0-.535,1.3h3.141v-.181a1.681,1.681,0,0,0-.406-1.165A1.456,1.456,0,0,0,137-6.789ZM142.633,0V-6.8h-1.258V-8.453h1.258v-.719a2.918,2.918,0,0,1,.816-2.207,3.162,3.162,0,0,1,2.285-.785,5.278,5.278,0,0,1,1.148.156l-.023,1.75a2.878,2.878,0,0,0-.687-.07q-1.273,0-1.273,1.2v.68h1.68V-6.8H144.9V0Zm9.008.156a4.15,4.15,0,0,1-3.027-1.141,4.054,4.054,0,0,1-1.168-3.039v-.219a5.106,5.106,0,0,1,.492-2.277,3.612,3.612,0,0,1,1.395-1.547,3.914,3.914,0,0,1,2.059-.543,3.508,3.508,0,0,1,2.73,1.094,4.444,4.444,0,0,1,1,3.1v.922h-5.383a2.1,2.1,0,0,0,.66,1.328,2,2,0,0,0,1.395.5,2.437,2.437,0,0,0,2.039-.945l1.109,1.242a3.389,3.389,0,0,1-1.375,1.121A4.511,4.511,0,0,1,151.641.156Zm-.258-6.945a1.411,1.411,0,0,0-1.09.455,2.357,2.357,0,0,0-.535,1.3H152.9v-.181a1.681,1.681,0,0,0-.406-1.165A1.456,1.456,0,0,0,151.383-6.789Zm8.531,5.125a1.481,1.481,0,0,0,1.016-.344,1.2,1.2,0,0,0,.406-.914h2.117a2.9,2.9,0,0,1-.469,1.574,3.093,3.093,0,0,1-1.262,1.109,3.949,3.949,0,0,1-1.77.395A3.67,3.67,0,0,1,157.094-1a4.56,4.56,0,0,1-1.047-3.184v-.148a4.508,4.508,0,0,1,1.039-3.117,3.627,3.627,0,0,1,2.852-1.164,3.555,3.555,0,0,1,2.543.9,3.2,3.2,0,0,1,.973,2.4h-2.117a1.551,1.551,0,0,0-.406-1.072,1.355,1.355,0,0,0-1.031-.412,1.36,1.36,0,0,0-1.191.575,3.333,3.333,0,0,0-.4,1.866v.235a3.375,3.375,0,0,0,.4,1.878A1.377,1.377,0,0,0,159.914-1.664Zm7.531-8.867v2.078h1.445V-6.8h-1.445v4.219a1.007,1.007,0,0,0,.18.672.9.9,0,0,0,.688.2,3.6,3.6,0,0,0,.664-.055V-.047a4.648,4.648,0,0,1-1.367.2,2.156,2.156,0,0,1-2.422-2.4V-6.8h-1.234V-8.453h1.234v-2.078ZM172.531,0h-2.266V-8.453h2.266Zm-2.4-10.641a1.112,1.112,0,0,1,.34-.836,1.277,1.277,0,0,1,.926-.328,1.28,1.28,0,0,1,.922.328,1.105,1.105,0,0,1,.344.836,1.109,1.109,0,0,1-.348.844,1.283,1.283,0,0,1-.918.328,1.283,1.283,0,0,1-.918-.328A1.109,1.109,0,0,1,170.133-10.641Zm7.422,7.883,1.57-5.7h2.359L178.633,0h-2.156l-2.852-8.453h2.359ZM182.008-4.3a5.013,5.013,0,0,1,.484-2.242,3.546,3.546,0,0,1,1.395-1.523A4.069,4.069,0,0,1,186-8.609a3.849,3.849,0,0,1,2.793,1.047A4.2,4.2,0,0,1,190-4.719l.016.578A4.418,4.418,0,0,1,188.93-1.02,3.775,3.775,0,0,1,186.016.156,3.793,3.793,0,0,1,183.1-1.016a4.5,4.5,0,0,1-1.09-3.187Zm2.258.16a3.16,3.16,0,0,0,.453,1.843,1.5,1.5,0,0,0,1.3.638,1.5,1.5,0,0,0,1.281-.63,3.457,3.457,0,0,0,.461-2.015A3.128,3.128,0,0,0,187.3-6.14a1.5,1.5,0,0,0-1.3-.649,1.474,1.474,0,0,0-1.281.646A3.516,3.516,0,0,0,184.266-4.144Z" transform="translate(335.277 1073.047)" fill="#fff"/>
    <path id="Trazado_595558" data-name="Trazado 595558" d="M7.859-4.93h-4.5v3.047H8.641V0H1.016V-11.375H8.625v1.9H3.359v2.711h4.5Zm6.586,2.594a.727.727,0,0,0-.41-.652,4.659,4.659,0,0,0-1.316-.426Q9.7-4.047,9.7-5.977a2.323,2.323,0,0,1,.934-1.879,3.766,3.766,0,0,1,2.441-.754,4.053,4.053,0,0,1,2.574.758,2.388,2.388,0,0,1,.965,1.969H14.359a1.092,1.092,0,0,0-.312-.8A1.322,1.322,0,0,0,13.07-7a1.351,1.351,0,0,0-.883.258.814.814,0,0,0-.312.656.7.7,0,0,0,.355.605,3.657,3.657,0,0,0,1.2.4,9.8,9.8,0,0,1,1.422.379A2.336,2.336,0,0,1,16.641-2.43a2.2,2.2,0,0,1-.992,1.871,4.28,4.28,0,0,1-2.562.715A4.47,4.47,0,0,1,11.2-.223,3.166,3.166,0,0,1,9.906-1.262a2.414,2.414,0,0,1-.469-1.426h2.141a1.179,1.179,0,0,0,.445.922,1.766,1.766,0,0,0,1.109.32,1.635,1.635,0,0,0,.98-.246A.766.766,0,0,0,14.445-2.336Zm6.352-8.2v2.078h1.445V-6.8H20.8v4.219a1.007,1.007,0,0,0,.18.672.9.9,0,0,0,.688.2,3.6,3.6,0,0,0,.664-.055V-.047a4.648,4.648,0,0,1-1.367.2,2.156,2.156,0,0,1-2.422-2.4V-6.8H17.3V-8.453h1.234v-2.078ZM28.4,0a2.507,2.507,0,0,1-.227-.758,2.732,2.732,0,0,1-2.133.914A3,3,0,0,1,23.98-.562a2.312,2.312,0,0,1-.816-1.812,2.389,2.389,0,0,1,1-2.062,4.915,4.915,0,0,1,2.879-.727h1.039v-.484a1.393,1.393,0,0,0-.3-.937,1.183,1.183,0,0,0-.949-.352,1.345,1.345,0,0,0-.895.273.929.929,0,0,0-.324.75H23.352A2.268,2.268,0,0,1,23.8-7.273a3,3,0,0,1,1.281-.98,4.669,4.669,0,0,1,1.859-.355,3.689,3.689,0,0,1,2.48.785,2.747,2.747,0,0,1,.918,2.207v3.664a4.041,4.041,0,0,0,.336,1.82V0ZM26.531-1.57a1.945,1.945,0,0,0,.922-.223,1.462,1.462,0,0,0,.625-.6V-3.844h-.844q-1.7,0-1.8,1.172l-.008.133a.9.9,0,0,0,.3.7A1.153,1.153,0,0,0,26.531-1.57Zm5.2-2.719a5.094,5.094,0,0,1,.887-3.148,2.877,2.877,0,0,1,2.426-1.172,2.589,2.589,0,0,1,2.039.922V-12h2.266V0H37.3L37.2-.9A2.657,2.657,0,0,1,35.023.156,2.869,2.869,0,0,1,32.629-1.02,5.258,5.258,0,0,1,31.727-4.289Zm2.258.168A3.337,3.337,0,0,0,34.4-2.3a1.349,1.349,0,0,0,1.2.634,1.511,1.511,0,0,0,1.477-.884V-5.889a1.489,1.489,0,0,0-1.461-.884Q33.984-6.773,33.984-4.121ZM40.742-4.3a5.013,5.013,0,0,1,.484-2.242A3.546,3.546,0,0,1,42.621-8.07a4.069,4.069,0,0,1,2.113-.539,3.849,3.849,0,0,1,2.793,1.047,4.2,4.2,0,0,1,1.207,2.844l.016.578A4.418,4.418,0,0,1,47.664-1.02,3.775,3.775,0,0,1,44.75.156a3.793,3.793,0,0,1-2.918-1.172A4.5,4.5,0,0,1,40.742-4.2ZM43-4.144A3.16,3.16,0,0,0,43.453-2.3a1.5,1.5,0,0,0,1.3.638,1.5,1.5,0,0,0,1.281-.63,3.457,3.457,0,0,0,.461-2.015,3.128,3.128,0,0,0-.461-1.831,1.5,1.5,0,0,0-1.3-.649,1.474,1.474,0,0,0-1.281.646A3.516,3.516,0,0,0,43-4.144Zm10.773-.145a5.094,5.094,0,0,1,.887-3.148,2.877,2.877,0,0,1,2.426-1.172,2.589,2.589,0,0,1,2.039.922V-12h2.266V0H59.352l-.109-.9A2.657,2.657,0,0,1,57.07.156,2.869,2.869,0,0,1,54.676-1.02,5.258,5.258,0,0,1,53.773-4.289Zm2.258.168A3.337,3.337,0,0,0,56.445-2.3a1.349,1.349,0,0,0,1.2.634,1.511,1.511,0,0,0,1.477-.884V-5.889a1.489,1.489,0,0,0-1.461-.884Q56.031-6.773,56.031-4.121Zm11,4.277A4.15,4.15,0,0,1,64-.984a4.054,4.054,0,0,1-1.168-3.039v-.219a5.106,5.106,0,0,1,.492-2.277,3.612,3.612,0,0,1,1.395-1.547,3.914,3.914,0,0,1,2.059-.543,3.508,3.508,0,0,1,2.73,1.094,4.444,4.444,0,0,1,1,3.1v.922H65.125a2.1,2.1,0,0,0,.66,1.328,2,2,0,0,0,1.395.5,2.437,2.437,0,0,0,2.039-.945l1.109,1.242A3.389,3.389,0,0,1,68.953-.246,4.511,4.511,0,0,1,67.031.156Zm-.258-6.945a1.411,1.411,0,0,0-1.09.455,2.357,2.357,0,0,0-.535,1.3h3.141v-.181a1.681,1.681,0,0,0-.406-1.165A1.456,1.456,0,0,0,66.773-6.789Zm13.75.453a6.134,6.134,0,0,0-.812-.062,1.654,1.654,0,0,0-1.68.867V0H75.773V-8.453h2.133l.063,1.008a2.092,2.092,0,0,1,1.883-1.164,2.366,2.366,0,0,1,.7.1ZM85.5.156A4.15,4.15,0,0,1,82.473-.984,4.054,4.054,0,0,1,81.3-4.023v-.219A5.106,5.106,0,0,1,81.8-6.52a3.612,3.612,0,0,1,1.395-1.547,3.914,3.914,0,0,1,2.059-.543,3.508,3.508,0,0,1,2.73,1.094,4.444,4.444,0,0,1,1,3.1v.922H83.594a2.1,2.1,0,0,0,.66,1.328,2,2,0,0,0,1.395.5,2.437,2.437,0,0,0,2.039-.945L88.8-1.367A3.389,3.389,0,0,1,87.422-.246,4.511,4.511,0,0,1,85.5.156Zm-.258-6.945a1.411,1.411,0,0,0-1.09.455,2.357,2.357,0,0,0-.535,1.3h3.141v-.181a1.681,1.681,0,0,0-.406-1.165A1.456,1.456,0,0,0,85.242-6.789Zm9.594,4.453a.727.727,0,0,0-.41-.652,4.659,4.659,0,0,0-1.316-.426q-3.016-.633-3.016-2.562a2.323,2.323,0,0,1,.934-1.879,3.766,3.766,0,0,1,2.441-.754,4.053,4.053,0,0,1,2.574.758,2.388,2.388,0,0,1,.965,1.969H94.75a1.092,1.092,0,0,0-.312-.8A1.322,1.322,0,0,0,93.461-7a1.351,1.351,0,0,0-.883.258.814.814,0,0,0-.312.656.7.7,0,0,0,.355.605,3.657,3.657,0,0,0,1.2.4,9.8,9.8,0,0,1,1.422.379A2.336,2.336,0,0,1,97.031-2.43a2.2,2.2,0,0,1-.992,1.871,4.28,4.28,0,0,1-2.562.715A4.47,4.47,0,0,1,91.59-.223,3.166,3.166,0,0,1,90.3-1.262a2.414,2.414,0,0,1-.469-1.426h2.141a1.179,1.179,0,0,0,.445.922,1.766,1.766,0,0,0,1.109.32,1.635,1.635,0,0,0,.98-.246A.766.766,0,0,0,94.836-2.336Zm8.711,1.477A2.831,2.831,0,0,1,101.234.156,2.67,2.67,0,0,1,99.16-.625a3.335,3.335,0,0,1-.73-2.289V-8.453h2.258v5.467q0,1.322,1.2,1.322a1.63,1.63,0,0,0,1.578-.8V-8.453h2.266V0h-2.125ZM109.82,0h-2.266V-12h2.266Zm4.563-10.531v2.078h1.445V-6.8h-1.445v4.219a1.007,1.007,0,0,0,.18.672.9.9,0,0,0,.688.2,3.6,3.6,0,0,0,.664-.055V-.047a4.648,4.648,0,0,1-1.367.2,2.156,2.156,0,0,1-2.422-2.4V-6.8h-1.234V-8.453h1.234v-2.078ZM121.984,0a2.507,2.507,0,0,1-.227-.758,2.732,2.732,0,0,1-2.133.914,3,3,0,0,1-2.059-.719,2.312,2.312,0,0,1-.816-1.812,2.389,2.389,0,0,1,1-2.062,4.915,4.915,0,0,1,2.879-.727h1.039v-.484a1.393,1.393,0,0,0-.3-.937,1.183,1.183,0,0,0-.949-.352,1.345,1.345,0,0,0-.895.273.929.929,0,0,0-.324.75h-2.258a2.268,2.268,0,0,1,.453-1.359,3,3,0,0,1,1.281-.98,4.669,4.669,0,0,1,1.859-.355,3.689,3.689,0,0,1,2.48.785,2.747,2.747,0,0,1,.918,2.207v3.664a4.041,4.041,0,0,0,.336,1.82V0Zm-1.867-1.57a1.945,1.945,0,0,0,.922-.223,1.462,1.462,0,0,0,.625-.6V-3.844h-.844q-1.7,0-1.8,1.172l-.008.133a.9.9,0,0,0,.3.7A1.153,1.153,0,0,0,120.117-1.57Zm5.2-2.719a5.094,5.094,0,0,1,.887-3.148,2.877,2.877,0,0,1,2.426-1.172,2.589,2.589,0,0,1,2.039.922V-12h2.266V0h-2.039l-.109-.9A2.657,2.657,0,0,1,128.609.156a2.869,2.869,0,0,1-2.395-1.176A5.258,5.258,0,0,1,125.313-4.289Zm2.258.168a3.337,3.337,0,0,0,.414,1.823,1.349,1.349,0,0,0,1.2.634,1.511,1.511,0,0,0,1.477-.884V-5.889a1.489,1.489,0,0,0-1.461-.884Q127.57-6.773,127.57-4.121Zm6.758-.184a5.013,5.013,0,0,1,.484-2.242,3.546,3.546,0,0,1,1.395-1.523,4.069,4.069,0,0,1,2.113-.539,3.849,3.849,0,0,1,2.793,1.047,4.2,4.2,0,0,1,1.207,2.844l.016.578A4.418,4.418,0,0,1,141.25-1.02,3.775,3.775,0,0,1,138.336.156a3.793,3.793,0,0,1-2.918-1.172,4.5,4.5,0,0,1-1.09-3.187Zm2.258.16a3.16,3.16,0,0,0,.453,1.843,1.5,1.5,0,0,0,1.3.638,1.5,1.5,0,0,0,1.281-.63,3.457,3.457,0,0,0,.461-2.015,3.128,3.128,0,0,0-.461-1.831,1.5,1.5,0,0,0-1.3-.649,1.474,1.474,0,0,0-1.281.646A3.516,3.516,0,0,0,136.586-4.144ZM148.3-2.336a.727.727,0,0,0-.41-.652,4.659,4.659,0,0,0-1.316-.426q-3.016-.633-3.016-2.562a2.323,2.323,0,0,1,.934-1.879,3.766,3.766,0,0,1,2.441-.754,4.053,4.053,0,0,1,2.574.758,2.388,2.388,0,0,1,.965,1.969h-2.258a1.092,1.092,0,0,0-.312-.8A1.322,1.322,0,0,0,146.93-7a1.351,1.351,0,0,0-.883.258.814.814,0,0,0-.312.656.7.7,0,0,0,.355.605,3.657,3.657,0,0,0,1.2.4,9.8,9.8,0,0,1,1.422.379A2.336,2.336,0,0,1,150.5-2.43a2.205,2.205,0,0,1-.992,1.871,4.28,4.28,0,0,1-2.562.715,4.47,4.47,0,0,1-1.887-.379,3.166,3.166,0,0,1-1.293-1.039,2.414,2.414,0,0,1-.469-1.426h2.141a1.179,1.179,0,0,0,.445.922,1.766,1.766,0,0,0,1.109.32,1.635,1.635,0,0,0,.98-.246A.766.766,0,0,0,148.3-2.336Z" transform="translate(1070 1073.047)" fill="#fff"/>
    <path id="Trazado_595559" data-name="Trazado 595559" d="M1.016,0V-11.375H5a5.232,5.232,0,0,1,3.141.793,2.712,2.712,0,0,1,1.07,2.324,2.57,2.57,0,0,1-.43,1.473,2.482,2.482,0,0,1-1.2.934,2.4,2.4,0,0,1,1.379.883,2.61,2.61,0,0,1,.5,1.625A3,3,0,0,1,8.422-.859,4.713,4.713,0,0,1,5.438,0ZM3.359-4.953v3.07H5.367A1.938,1.938,0,0,0,6.66-2.277a1.353,1.353,0,0,0,.465-1.09A1.428,1.428,0,0,0,5.508-4.953Zm0-1.656H5.094q1.773-.031,1.773-1.414a1.307,1.307,0,0,0-.449-1.113A2.363,2.363,0,0,0,5-9.477H3.359ZM15.977,0a2.507,2.507,0,0,1-.227-.758,2.732,2.732,0,0,1-2.133.914,3,3,0,0,1-2.059-.719,2.312,2.312,0,0,1-.816-1.812,2.389,2.389,0,0,1,1-2.062,4.915,4.915,0,0,1,2.879-.727h1.039v-.484a1.393,1.393,0,0,0-.3-.937,1.183,1.183,0,0,0-.949-.352,1.345,1.345,0,0,0-.895.273.929.929,0,0,0-.324.75H10.93a2.268,2.268,0,0,1,.453-1.359,3,3,0,0,1,1.281-.98,4.669,4.669,0,0,1,1.859-.355A3.689,3.689,0,0,1,17-7.824a2.747,2.747,0,0,1,.918,2.207v3.664a4.041,4.041,0,0,0,.336,1.82V0ZM14.109-1.57a1.945,1.945,0,0,0,.922-.223,1.462,1.462,0,0,0,.625-.6V-3.844h-.844q-1.7,0-1.8,1.172L13-2.539a.9.9,0,0,0,.3.7A1.153,1.153,0,0,0,14.109-1.57ZM22.039,0H19.773V-12h2.266ZM28.8,0a2.507,2.507,0,0,1-.227-.758,2.732,2.732,0,0,1-2.133.914,3,3,0,0,1-2.059-.719,2.312,2.312,0,0,1-.816-1.812,2.389,2.389,0,0,1,1-2.062,4.915,4.915,0,0,1,2.879-.727h1.039v-.484a1.393,1.393,0,0,0-.3-.937,1.183,1.183,0,0,0-.949-.352,1.345,1.345,0,0,0-.895.273.929.929,0,0,0-.324.75H23.75A2.268,2.268,0,0,1,24.2-7.273a3,3,0,0,1,1.281-.98,4.669,4.669,0,0,1,1.859-.355,3.689,3.689,0,0,1,2.48.785,2.747,2.747,0,0,1,.918,2.207v3.664a4.041,4.041,0,0,0,.336,1.82V0ZM26.93-1.57a1.945,1.945,0,0,0,.922-.223,1.462,1.462,0,0,0,.625-.6V-3.844h-.844q-1.7,0-1.8,1.172l-.008.133a.9.9,0,0,0,.3.7A1.153,1.153,0,0,0,26.93-1.57Zm7.625-6.883.07.977a2.951,2.951,0,0,1,2.43-1.133,2.453,2.453,0,0,1,2,.789,3.682,3.682,0,0,1,.672,2.359V0H37.469V-5.406a1.465,1.465,0,0,0-.312-1.043,1.4,1.4,0,0,0-1.039-.324,1.553,1.553,0,0,0-1.43.813V0H32.43V-8.453Zm10.4,6.789a1.481,1.481,0,0,0,1.016-.344,1.2,1.2,0,0,0,.406-.914h2.117a2.9,2.9,0,0,1-.469,1.574A3.093,3.093,0,0,1,46.762-.238a3.949,3.949,0,0,1-1.77.395A3.67,3.67,0,0,1,42.133-1,4.56,4.56,0,0,1,41.086-4.18v-.148a4.508,4.508,0,0,1,1.039-3.117,3.627,3.627,0,0,1,2.852-1.164,3.555,3.555,0,0,1,2.543.9,3.2,3.2,0,0,1,.973,2.4H46.375a1.551,1.551,0,0,0-.406-1.072,1.354,1.354,0,0,0-1.031-.412,1.36,1.36,0,0,0-1.191.575,3.333,3.333,0,0,0-.4,1.866v.235a3.375,3.375,0,0,0,.4,1.878A1.377,1.377,0,0,0,44.953-1.664ZM53.672.156A4.15,4.15,0,0,1,50.645-.984a4.054,4.054,0,0,1-1.168-3.039v-.219a5.106,5.106,0,0,1,.492-2.277,3.612,3.612,0,0,1,1.395-1.547,3.914,3.914,0,0,1,2.059-.543,3.508,3.508,0,0,1,2.73,1.094,4.444,4.444,0,0,1,1,3.1v.922H51.766a2.1,2.1,0,0,0,.66,1.328,2,2,0,0,0,1.395.5,2.437,2.437,0,0,0,2.039-.945l1.109,1.242A3.389,3.389,0,0,1,55.594-.246,4.511,4.511,0,0,1,53.672.156Zm-.258-6.945a1.411,1.411,0,0,0-1.09.455,2.357,2.357,0,0,0-.535,1.3H54.93v-.181a1.681,1.681,0,0,0-.406-1.165A1.456,1.456,0,0,0,53.414-6.789Zm8.672,2.5a4.954,4.954,0,0,1,.926-3.133,3,3,0,0,1,2.5-1.187,2.631,2.631,0,0,1,2.164.953l.094-.8h2.047V-.281a3.613,3.613,0,0,1-.5,1.93A3.236,3.236,0,0,1,67.891,2.9a4.985,4.985,0,0,1-2.141.43,4.635,4.635,0,0,1-1.812-.371A3.217,3.217,0,0,1,62.6,2l1-1.375a2.645,2.645,0,0,0,2.047.945,1.936,1.936,0,0,0,1.4-.48,1.8,1.8,0,0,0,.5-1.363V-.727a2.612,2.612,0,0,1-2.055.883,2.992,2.992,0,0,1-2.465-1.191,4.953,4.953,0,0,1-.941-3.16Zm2.258.168a3.085,3.085,0,0,0,.461,1.8,1.466,1.466,0,0,0,1.266.653,1.568,1.568,0,0,0,1.477-.775V-6a1.564,1.564,0,0,0-1.461-.775,1.476,1.476,0,0,0-1.277.665A3.477,3.477,0,0,0,64.344-4.121ZM75.438.156A4.15,4.15,0,0,1,72.41-.984a4.054,4.054,0,0,1-1.168-3.039v-.219a5.106,5.106,0,0,1,.492-2.277,3.612,3.612,0,0,1,1.395-1.547,3.914,3.914,0,0,1,2.059-.543,3.508,3.508,0,0,1,2.73,1.094,4.444,4.444,0,0,1,1,3.1v.922H73.531a2.1,2.1,0,0,0,.66,1.328,2,2,0,0,0,1.395.5,2.437,2.437,0,0,0,2.039-.945l1.109,1.242A3.389,3.389,0,0,1,77.359-.246,4.511,4.511,0,0,1,75.438.156ZM75.18-6.789a1.411,1.411,0,0,0-1.09.455,2.357,2.357,0,0,0-.535,1.3H76.7v-.181a1.681,1.681,0,0,0-.406-1.165A1.456,1.456,0,0,0,75.18-6.789Zm7.094-1.664.07.977a2.951,2.951,0,0,1,2.43-1.133,2.453,2.453,0,0,1,2,.789,3.682,3.682,0,0,1,.672,2.359V0H85.188V-5.406a1.465,1.465,0,0,0-.312-1.043,1.4,1.4,0,0,0-1.039-.324,1.553,1.553,0,0,0-1.43.813V0H80.148V-8.453ZM93.047.156A4.15,4.15,0,0,1,90.02-.984a4.054,4.054,0,0,1-1.168-3.039v-.219a5.106,5.106,0,0,1,.492-2.277,3.612,3.612,0,0,1,1.395-1.547A3.914,3.914,0,0,1,92.8-8.609a3.508,3.508,0,0,1,2.73,1.094,4.444,4.444,0,0,1,1,3.1v.922H91.141a2.1,2.1,0,0,0,.66,1.328,2,2,0,0,0,1.395.5,2.437,2.437,0,0,0,2.039-.945l1.109,1.242A3.389,3.389,0,0,1,94.969-.246,4.511,4.511,0,0,1,93.047.156Zm-.258-6.945a1.411,1.411,0,0,0-1.09.455,2.357,2.357,0,0,0-.535,1.3H94.3v-.181A1.681,1.681,0,0,0,93.9-6.377,1.456,1.456,0,0,0,92.789-6.789Zm9.766.453a6.134,6.134,0,0,0-.812-.062,1.654,1.654,0,0,0-1.68.867V0H97.8V-8.453h2.133L100-7.445a2.092,2.092,0,0,1,1.883-1.164,2.366,2.366,0,0,1,.7.1ZM108.3,0a2.507,2.507,0,0,1-.227-.758,2.732,2.732,0,0,1-2.133.914,3,3,0,0,1-2.059-.719,2.312,2.312,0,0,1-.816-1.812,2.389,2.389,0,0,1,1-2.062,4.915,4.915,0,0,1,2.879-.727h1.039v-.484a1.393,1.393,0,0,0-.3-.937,1.183,1.183,0,0,0-.949-.352,1.345,1.345,0,0,0-.895.273.929.929,0,0,0-.324.75h-2.258a2.268,2.268,0,0,1,.453-1.359,3,3,0,0,1,1.281-.98,4.669,4.669,0,0,1,1.859-.355,3.689,3.689,0,0,1,2.48.785,2.747,2.747,0,0,1,.918,2.207v3.664a4.041,4.041,0,0,0,.336,1.82V0Zm-1.867-1.57a1.945,1.945,0,0,0,.922-.223,1.462,1.462,0,0,0,.625-.6V-3.844h-.844q-1.7,0-1.8,1.172l-.008.133a.9.9,0,0,0,.3.7A1.153,1.153,0,0,0,106.438-1.57ZM114.367,0H112.1V-12h2.266Z" transform="translate(743 1073.047)" fill="#fff"/>
    <path id="Trazado_595560" data-name="Trazado 595560" d="M0,0H115.9V49.521H0Z" transform="translate(831.826 1138.466)" fill="#f2edff"/>
    <path id="Trazado_595561" data-name="Trazado 595561" d="M0,0H115.9V49.521H0Z" transform="translate(1199.104 1290.479)" fill="#f2edff"/>
    <path id="Trazado_595562" data-name="Trazado 595562" d="M0,0H115.9V49.521H0Z" transform="translate(831.826 1213.466)" fill="#f2edff"/>
    <path id="Trazado_595563" data-name="Trazado 595563" d="M0,0H115.9V49.521H0Z" transform="translate(1199.104 1215.409)" fill="#f2edff"/>
    <path id="Trazado_595564" data-name="Trazado 595564" d="M0,0H115.9V49.521H0Z" transform="translate(831.774 1287.987)" fill="#f2edff"/>
    <path id="Trazado_595565" data-name="Trazado 595565" d="M0,0H115.9V49.521H0Z" transform="translate(1199 1138.466)" fill="#f2edff"/>
    <path id="Trazado_595566" data-name="Trazado 595566" d="M7.6,14.023H2.836L1.766,17H.219L4.563,5.625H5.875L10.227,17H8.688ZM3.289,12.8H7.156L5.219,7.477Zm11.633,3.18a2.082,2.082,0,0,0,1.352-.469,1.649,1.649,0,0,0,.641-1.172h1.367a2.621,2.621,0,0,1-.5,1.383,3.293,3.293,0,0,1-1.23,1.047,3.55,3.55,0,0,1-1.629.391A3.482,3.482,0,0,1,12.176,16a4.59,4.59,0,0,1-1.02-3.152v-.242a5.089,5.089,0,0,1,.453-2.2,3.451,3.451,0,0,1,1.3-1.492,3.7,3.7,0,0,1,2-.531,3.39,3.39,0,0,1,2.363.852,3.043,3.043,0,0,1,1,2.211H16.914a1.992,1.992,0,0,0-.621-1.348,1.932,1.932,0,0,0-1.379-.527,2.023,2.023,0,0,0-1.707.793,3.724,3.724,0,0,0-.605,2.293v.273a3.65,3.65,0,0,0,.6,2.25A2.033,2.033,0,0,0,14.922,15.977ZM21.867,6.5V8.547h1.578V9.664H21.867v5.249a1.173,1.173,0,0,0,.211.763.888.888,0,0,0,.719.254,3.5,3.5,0,0,0,.688-.094V17a4.215,4.215,0,0,1-1.109.155,1.8,1.8,0,0,1-1.461-.586,2.517,2.517,0,0,1-.492-1.664V9.664H18.883V8.547h1.539V6.5ZM26.7,17H25.258V8.547H26.7ZM25.141,6.3a.863.863,0,0,1,.215-.594.807.807,0,0,1,.637-.242.819.819,0,0,1,.641.242.854.854,0,0,1,.219.594.826.826,0,0,1-.219.586.834.834,0,0,1-.641.234.821.821,0,0,1-.637-.234A.834.834,0,0,1,25.141,6.3ZM31.8,15.039,33.9,8.547h1.477L32.344,17h-1.1L28.18,8.547h1.477ZM36.266,12.7a4.993,4.993,0,0,1,.488-2.234A3.643,3.643,0,0,1,38.113,8.93,3.7,3.7,0,0,1,40.1,8.391a3.565,3.565,0,0,1,2.793,1.2,4.6,4.6,0,0,1,1.066,3.18v.1a5.036,5.036,0,0,1-.473,2.215,3.589,3.589,0,0,1-1.352,1.527,3.743,3.743,0,0,1-2.02.547,3.556,3.556,0,0,1-2.785-1.2A4.575,4.575,0,0,1,36.266,12.8Zm1.453.172a3.616,3.616,0,0,0,.652,2.258,2.211,2.211,0,0,0,3.5-.012,3.955,3.955,0,0,0,.648-2.418,3.61,3.61,0,0,0-.66-2.254A2.1,2.1,0,0,0,40.1,9.578a2.075,2.075,0,0,0-1.727.852A3.925,3.925,0,0,0,37.719,12.867ZM50.7,14.758a1.064,1.064,0,0,0-.441-.91,4.249,4.249,0,0,0-1.539-.559,7.277,7.277,0,0,1-1.742-.562,2.479,2.479,0,0,1-.953-.781,1.869,1.869,0,0,1-.309-1.078,2.193,2.193,0,0,1,.879-1.758,3.432,3.432,0,0,1,2.246-.719,3.532,3.532,0,0,1,2.332.742,2.357,2.357,0,0,1,.895,1.9H50.609a1.3,1.3,0,0,0-.5-1.023,1.888,1.888,0,0,0-1.27-.43,1.976,1.976,0,0,0-1.234.344,1.082,1.082,0,0,0-.445.9.877.877,0,0,0,.414.789,5.1,5.1,0,0,0,1.5.508,7.8,7.8,0,0,1,1.754.578,2.558,2.558,0,0,1,1,.809,1.988,1.988,0,0,1,.324,1.152,2.163,2.163,0,0,1-.906,1.816,3.8,3.8,0,0,1-2.352.684,4.257,4.257,0,0,1-1.8-.359,2.922,2.922,0,0,1-1.223-1,2.42,2.42,0,0,1-.441-1.395h1.445a1.5,1.5,0,0,0,.582,1.152,2.258,2.258,0,0,0,1.434.426,2.331,2.331,0,0,0,1.316-.332A1.02,1.02,0,0,0,50.7,14.758Z" transform="translate(857.826 1154.466)" fill="#12263f"/>
    <path id="Trazado_595567" data-name="Trazado 595567" d="M2.93,17H1.43V5.625h1.5ZM6.813,8.547l.047,1.063A3.08,3.08,0,0,1,9.391,8.391q2.68,0,2.7,3.023V17H10.648V11.406a1.946,1.946,0,0,0-.418-1.352,1.675,1.675,0,0,0-1.277-.437,2.086,2.086,0,0,0-1.234.375,2.546,2.546,0,0,0-.828.984V17H5.445V8.547ZM13.93,12.7a4.968,4.968,0,0,1,.914-3.145,2.923,2.923,0,0,1,2.422-1.168A2.908,2.908,0,0,1,19.68,9.484l.07-.937h1.32V16.8a3.439,3.439,0,0,1-.973,2.586,3.589,3.589,0,0,1-2.613.945,4.348,4.348,0,0,1-1.789-.391,3.08,3.08,0,0,1-1.336-1.07l.75-.867a2.826,2.826,0,0,0,2.273,1.148,2.214,2.214,0,0,0,1.645-.594,2.269,2.269,0,0,0,.59-1.672v-.727a2.971,2.971,0,0,1-2.367,1,2.887,2.887,0,0,1-2.4-1.2A5.224,5.224,0,0,1,13.93,12.7Zm1.453.164a3.79,3.79,0,0,0,.586,2.246,1.9,1.9,0,0,0,1.641.816,2.117,2.117,0,0,0,2.008-1.242V10.828a2.142,2.142,0,0,0-1.992-1.211,1.921,1.921,0,0,0-1.648.82A4.128,4.128,0,0,0,15.383,12.867ZM27.336,9.844a4.331,4.331,0,0,0-.711-.055A1.9,1.9,0,0,0,24.7,11v6H23.25V8.547h1.406l.023.977A2.251,2.251,0,0,1,26.7,8.391a1.477,1.477,0,0,1,.641.109Zm4.836,7.313a3.693,3.693,0,0,1-2.8-1.129,4.19,4.19,0,0,1-1.078-3.02v-.266a5.073,5.073,0,0,1,.48-2.246,3.748,3.748,0,0,1,1.344-1.547,3.378,3.378,0,0,1,1.871-.559,3.166,3.166,0,0,1,2.563,1.086,4.7,4.7,0,0,1,.914,3.109v.6H29.742a3,3,0,0,0,.73,2.02,2.3,2.3,0,0,0,1.777.77,2.517,2.517,0,0,0,1.3-.312,3.259,3.259,0,0,0,.93-.828l.883.688A3.55,3.55,0,0,1,32.172,17.156Zm-.18-7.578a1.928,1.928,0,0,0-1.469.637A3.1,3.1,0,0,0,29.789,12h4.234v-.109a2.753,2.753,0,0,0-.594-1.707A1.815,1.815,0,0,0,31.992,9.578Zm10.07,5.18a1.064,1.064,0,0,0-.441-.91,4.249,4.249,0,0,0-1.539-.559,7.277,7.277,0,0,1-1.742-.562,2.479,2.479,0,0,1-.953-.781,1.869,1.869,0,0,1-.309-1.078,2.193,2.193,0,0,1,.879-1.758A3.432,3.432,0,0,1,40.2,8.391a3.532,3.532,0,0,1,2.332.742,2.357,2.357,0,0,1,.895,1.9H41.977a1.3,1.3,0,0,0-.5-1.023,1.888,1.888,0,0,0-1.27-.43,1.976,1.976,0,0,0-1.234.344,1.082,1.082,0,0,0-.445.9.877.877,0,0,0,.414.789,5.1,5.1,0,0,0,1.5.508,7.8,7.8,0,0,1,1.754.578,2.558,2.558,0,0,1,1,.809,1.988,1.988,0,0,1,.324,1.152,2.163,2.163,0,0,1-.906,1.816,3.8,3.8,0,0,1-2.352.684,4.257,4.257,0,0,1-1.8-.359,2.922,2.922,0,0,1-1.223-1,2.42,2.42,0,0,1-.441-1.395h1.445a1.5,1.5,0,0,0,.582,1.152,2.258,2.258,0,0,0,1.434.426,2.331,2.331,0,0,0,1.316-.332A1.02,1.02,0,0,0,42.063,14.758ZM45.008,12.7a4.993,4.993,0,0,1,.488-2.234A3.643,3.643,0,0,1,46.855,8.93a3.7,3.7,0,0,1,1.988-.539,3.565,3.565,0,0,1,2.793,1.2,4.6,4.6,0,0,1,1.066,3.18v.1a5.036,5.036,0,0,1-.473,2.215,3.589,3.589,0,0,1-1.352,1.527,3.743,3.743,0,0,1-2.02.547,3.556,3.556,0,0,1-2.785-1.2A4.575,4.575,0,0,1,45.008,12.8Zm1.453.172a3.616,3.616,0,0,0,.652,2.258,2.211,2.211,0,0,0,3.5-.012,3.955,3.955,0,0,0,.648-2.418,3.61,3.61,0,0,0-.66-2.254,2.1,2.1,0,0,0-1.754-.863,2.075,2.075,0,0,0-1.727.852A3.925,3.925,0,0,0,46.461,12.867Zm12.977,1.891a1.064,1.064,0,0,0-.441-.91,4.249,4.249,0,0,0-1.539-.559,7.277,7.277,0,0,1-1.742-.562,2.479,2.479,0,0,1-.953-.781,1.869,1.869,0,0,1-.309-1.078,2.193,2.193,0,0,1,.879-1.758,3.432,3.432,0,0,1,2.246-.719,3.532,3.532,0,0,1,2.332.742,2.357,2.357,0,0,1,.895,1.9H59.352a1.3,1.3,0,0,0-.5-1.023,1.888,1.888,0,0,0-1.27-.43,1.976,1.976,0,0,0-1.234.344,1.082,1.082,0,0,0-.445.9.877.877,0,0,0,.414.789,5.1,5.1,0,0,0,1.5.508,7.8,7.8,0,0,1,1.754.578,2.558,2.558,0,0,1,1,.809,1.988,1.988,0,0,1,.324,1.152,2.163,2.163,0,0,1-.906,1.816,3.8,3.8,0,0,1-2.352.684,4.257,4.257,0,0,1-1.8-.359,2.922,2.922,0,0,1-1.223-1,2.42,2.42,0,0,1-.441-1.395h1.445a1.5,1.5,0,0,0,.582,1.152,2.258,2.258,0,0,0,1.434.426,2.331,2.331,0,0,0,1.316-.332A1.02,1.02,0,0,0,59.438,14.758Z" transform="translate(1225.104 1306.479)" fill="#12263f"/>
    <path id="Trazado_595568" data-name="Trazado 595568" d="M2.82,12.547V17H1.32V5.625h4.2a4.215,4.215,0,0,1,2.926.953A3.231,3.231,0,0,1,9.5,9.1a3.189,3.189,0,0,1-1.035,2.551,4.4,4.4,0,0,1-2.965.895Zm0-1.227h2.7a2.7,2.7,0,0,0,1.844-.567A2.075,2.075,0,0,0,8,9.113a2.143,2.143,0,0,0-.641-1.628A2.525,2.525,0,0,0,5.6,6.852H2.82ZM16.32,17a3.036,3.036,0,0,1-.2-.891,3.225,3.225,0,0,1-2.406,1.047,2.984,2.984,0,0,1-2.051-.707,2.287,2.287,0,0,1-.8-1.793,2.39,2.39,0,0,1,1-2.051,4.733,4.733,0,0,1,2.824-.73h1.406v-.664A1.623,1.623,0,0,0,15.641,10,1.821,1.821,0,0,0,14.3,9.555a2.107,2.107,0,0,0-1.3.391,1.151,1.151,0,0,0-.523.945H11.031a2,2,0,0,1,.449-1.223A3.066,3.066,0,0,1,12.7,8.734a4.1,4.1,0,0,1,1.691-.344,3.342,3.342,0,0,1,2.289.73,2.635,2.635,0,0,1,.859,2.012v3.891a4.757,4.757,0,0,0,.3,1.852V17Zm-2.4-1.1a2.54,2.54,0,0,0,1.289-.352,2.127,2.127,0,0,0,.883-.914V12.9H14.961q-2.656,0-2.656,1.555a1.316,1.316,0,0,0,.453,1.063A1.742,1.742,0,0,0,13.922,15.9Zm10.8-1.141a1.064,1.064,0,0,0-.441-.91,4.249,4.249,0,0,0-1.539-.559A7.277,7.277,0,0,1,21,12.727a2.479,2.479,0,0,1-.953-.781,1.869,1.869,0,0,1-.309-1.078,2.193,2.193,0,0,1,.879-1.758,3.432,3.432,0,0,1,2.246-.719,3.532,3.532,0,0,1,2.332.742,2.357,2.357,0,0,1,.895,1.9H24.641a1.3,1.3,0,0,0-.5-1.023,1.888,1.888,0,0,0-1.27-.43,1.976,1.976,0,0,0-1.234.344,1.082,1.082,0,0,0-.445.9.877.877,0,0,0,.414.789,5.1,5.1,0,0,0,1.5.508,7.8,7.8,0,0,1,1.754.578,2.558,2.558,0,0,1,1,.809,1.988,1.988,0,0,1,.324,1.152,2.163,2.163,0,0,1-.906,1.816,3.8,3.8,0,0,1-2.352.684,4.257,4.257,0,0,1-1.8-.359,2.922,2.922,0,0,1-1.223-1,2.42,2.42,0,0,1-.441-1.395H20.9a1.5,1.5,0,0,0,.582,1.152,2.258,2.258,0,0,0,1.434.426,2.331,2.331,0,0,0,1.316-.332A1.02,1.02,0,0,0,24.727,14.758ZM29.625,17H28.18V8.547h1.445ZM28.063,6.3a.863.863,0,0,1,.215-.594.807.807,0,0,1,.637-.242.819.819,0,0,1,.641.242.854.854,0,0,1,.219.594.826.826,0,0,1-.219.586.834.834,0,0,1-.641.234.821.821,0,0,1-.637-.234A.834.834,0,0,1,28.063,6.3Zm6.664,8.734L36.82,8.547H38.3L35.266,17h-1.1L31.1,8.547h1.477ZM39.188,12.7a4.993,4.993,0,0,1,.488-2.234A3.643,3.643,0,0,1,41.035,8.93a3.7,3.7,0,0,1,1.988-.539,3.565,3.565,0,0,1,2.793,1.2,4.6,4.6,0,0,1,1.066,3.18v.1a5.036,5.036,0,0,1-.473,2.215,3.589,3.589,0,0,1-1.352,1.527,3.743,3.743,0,0,1-2.02.547,3.556,3.556,0,0,1-2.785-1.2A4.575,4.575,0,0,1,39.188,12.8Zm1.453.172a3.616,3.616,0,0,0,.652,2.258,2.211,2.211,0,0,0,3.5-.012,3.955,3.955,0,0,0,.648-2.418,3.61,3.61,0,0,0-.66-2.254,2.1,2.1,0,0,0-1.754-.863,2.075,2.075,0,0,0-1.727.852A3.925,3.925,0,0,0,40.641,12.867Zm12.977,1.891a1.064,1.064,0,0,0-.441-.91,4.249,4.249,0,0,0-1.539-.559,7.277,7.277,0,0,1-1.742-.562,2.479,2.479,0,0,1-.953-.781,1.869,1.869,0,0,1-.309-1.078,2.193,2.193,0,0,1,.879-1.758,3.432,3.432,0,0,1,2.246-.719,3.532,3.532,0,0,1,2.332.742,2.357,2.357,0,0,1,.895,1.9H53.531a1.3,1.3,0,0,0-.5-1.023,1.888,1.888,0,0,0-1.27-.43,1.976,1.976,0,0,0-1.234.344,1.082,1.082,0,0,0-.445.9.877.877,0,0,0,.414.789,5.1,5.1,0,0,0,1.5.508,7.8,7.8,0,0,1,1.754.578,2.558,2.558,0,0,1,1,.809,1.988,1.988,0,0,1,.324,1.152,2.163,2.163,0,0,1-.906,1.816,3.8,3.8,0,0,1-2.352.684,4.257,4.257,0,0,1-1.8-.359,2.922,2.922,0,0,1-1.223-1,2.42,2.42,0,0,1-.441-1.395h1.445a1.5,1.5,0,0,0,.582,1.152,2.258,2.258,0,0,0,1.434.426,2.331,2.331,0,0,0,1.316-.332A1.02,1.02,0,0,0,53.617,14.758Z" transform="translate(858.826 1229.466)" fill="#12263f"/>
    <path id="Trazado_595569" data-name="Trazado 595569" d="M9.688,13.391a4.185,4.185,0,0,1-1.332,2.785,4.365,4.365,0,0,1-2.98.98,4.008,4.008,0,0,1-3.23-1.445A5.815,5.815,0,0,1,.93,11.844V10.75A6.481,6.481,0,0,1,1.5,7.961,4.231,4.231,0,0,1,3.1,6.113a4.47,4.47,0,0,1,2.406-.645A4.11,4.11,0,0,1,8.414,6.48a4.235,4.235,0,0,1,1.273,2.8H8.18a3.268,3.268,0,0,0-.848-1.975A2.565,2.565,0,0,0,5.508,6.7,2.684,2.684,0,0,0,3.254,7.759a4.882,4.882,0,0,0-.816,3.026v1.1a5.018,5.018,0,0,0,.773,2.948A2.5,2.5,0,0,0,5.375,15.93a2.887,2.887,0,0,0,1.918-.566,3.143,3.143,0,0,0,.887-1.973Zm1.438-.7a4.993,4.993,0,0,1,.488-2.234A3.643,3.643,0,0,1,12.973,8.93a3.7,3.7,0,0,1,1.988-.539,3.565,3.565,0,0,1,2.793,1.2,4.6,4.6,0,0,1,1.066,3.18v.1a5.036,5.036,0,0,1-.473,2.215A3.589,3.589,0,0,1,17,16.609a3.743,3.743,0,0,1-2.02.547,3.556,3.556,0,0,1-2.785-1.2A4.575,4.575,0,0,1,11.125,12.8Zm1.453.172a3.616,3.616,0,0,0,.652,2.258,2.211,2.211,0,0,0,3.5-.012,3.955,3.955,0,0,0,.648-2.418,3.61,3.61,0,0,0-.66-2.254,2.1,2.1,0,0,0-1.754-.863,2.075,2.075,0,0,0-1.727.852A3.925,3.925,0,0,0,12.578,12.867Zm12.977,1.891a1.064,1.064,0,0,0-.441-.91,4.249,4.249,0,0,0-1.539-.559,7.277,7.277,0,0,1-1.742-.562,2.479,2.479,0,0,1-.953-.781,1.869,1.869,0,0,1-.309-1.078,2.193,2.193,0,0,1,.879-1.758A3.432,3.432,0,0,1,23.7,8.391a3.532,3.532,0,0,1,2.332.742,2.357,2.357,0,0,1,.895,1.9H25.469a1.3,1.3,0,0,0-.5-1.023,1.888,1.888,0,0,0-1.27-.43,1.976,1.976,0,0,0-1.234.344,1.082,1.082,0,0,0-.445.9.877.877,0,0,0,.414.789,5.1,5.1,0,0,0,1.5.508,7.8,7.8,0,0,1,1.754.578,2.558,2.558,0,0,1,1,.809A1.988,1.988,0,0,1,27,14.656a2.163,2.163,0,0,1-.906,1.816,3.8,3.8,0,0,1-2.352.684,4.257,4.257,0,0,1-1.8-.359,2.922,2.922,0,0,1-1.223-1,2.42,2.42,0,0,1-.441-1.395h1.445a1.5,1.5,0,0,0,.582,1.152,2.258,2.258,0,0,0,1.434.426,2.331,2.331,0,0,0,1.316-.332A1.02,1.02,0,0,0,25.555,14.758ZM30.844,6.5V8.547h1.578V9.664H30.844v5.249a1.173,1.173,0,0,0,.211.763.888.888,0,0,0,.719.254,3.5,3.5,0,0,0,.688-.094V17a4.215,4.215,0,0,1-1.109.155,1.8,1.8,0,0,1-1.461-.586,2.517,2.517,0,0,1-.492-1.664V9.664H27.859V8.547H29.4V6.5Zm2.727,6.2a4.993,4.993,0,0,1,.488-2.234A3.643,3.643,0,0,1,35.418,8.93a3.7,3.7,0,0,1,1.988-.539,3.565,3.565,0,0,1,2.793,1.2,4.6,4.6,0,0,1,1.066,3.18v.1a5.036,5.036,0,0,1-.473,2.215,3.589,3.589,0,0,1-1.352,1.527,3.743,3.743,0,0,1-2.02.547,3.556,3.556,0,0,1-2.785-1.2A4.575,4.575,0,0,1,33.57,12.8Zm1.453.172a3.616,3.616,0,0,0,.652,2.258,2.211,2.211,0,0,0,3.5-.012A3.955,3.955,0,0,0,39.82,12.7a3.61,3.61,0,0,0-.66-2.254,2.1,2.1,0,0,0-1.754-.863,2.075,2.075,0,0,0-1.727.852A3.925,3.925,0,0,0,35.023,12.867ZM48,14.758a1.064,1.064,0,0,0-.441-.91,4.249,4.249,0,0,0-1.539-.559,7.277,7.277,0,0,1-1.742-.562,2.479,2.479,0,0,1-.953-.781,1.869,1.869,0,0,1-.309-1.078,2.193,2.193,0,0,1,.879-1.758,3.432,3.432,0,0,1,2.246-.719,3.532,3.532,0,0,1,2.332.742,2.357,2.357,0,0,1,.895,1.9H47.914a1.3,1.3,0,0,0-.5-1.023,1.888,1.888,0,0,0-1.27-.43,1.976,1.976,0,0,0-1.234.344,1.082,1.082,0,0,0-.445.9.877.877,0,0,0,.414.789,5.1,5.1,0,0,0,1.5.508,7.8,7.8,0,0,1,1.754.578,2.558,2.558,0,0,1,1,.809,1.988,1.988,0,0,1,.324,1.152,2.163,2.163,0,0,1-.906,1.816,3.8,3.8,0,0,1-2.352.684,4.257,4.257,0,0,1-1.8-.359,2.922,2.922,0,0,1-1.223-1,2.42,2.42,0,0,1-.441-1.395h1.445a1.5,1.5,0,0,0,.582,1.152,2.258,2.258,0,0,0,1.434.426,2.331,2.331,0,0,0,1.316-.332A1.02,1.02,0,0,0,48,14.758Z" transform="translate(1226.104 1231.409)" fill="#12263f"/>
    <path id="Trazado_595570" data-name="Trazado 595570" d="M9.688,13.391a4.185,4.185,0,0,1-1.332,2.785,4.365,4.365,0,0,1-2.98.98,4.008,4.008,0,0,1-3.23-1.445A5.815,5.815,0,0,1,.93,11.844V10.75A6.481,6.481,0,0,1,1.5,7.961,4.231,4.231,0,0,1,3.1,6.113a4.47,4.47,0,0,1,2.406-.645A4.11,4.11,0,0,1,8.414,6.48a4.235,4.235,0,0,1,1.273,2.8H8.18a3.268,3.268,0,0,0-.848-1.975A2.565,2.565,0,0,0,5.508,6.7,2.684,2.684,0,0,0,3.254,7.759a4.882,4.882,0,0,0-.816,3.026v1.1a5.018,5.018,0,0,0,.773,2.948A2.5,2.5,0,0,0,5.375,15.93a2.887,2.887,0,0,0,1.918-.566,3.143,3.143,0,0,0,.887-1.973ZM16.727,17a3.036,3.036,0,0,1-.2-.891,3.225,3.225,0,0,1-2.406,1.047,2.984,2.984,0,0,1-2.051-.707,2.287,2.287,0,0,1-.8-1.793,2.39,2.39,0,0,1,1-2.051,4.733,4.733,0,0,1,2.824-.73H16.5v-.664A1.623,1.623,0,0,0,16.047,10a1.821,1.821,0,0,0-1.336-.449,2.107,2.107,0,0,0-1.3.391,1.151,1.151,0,0,0-.523.945H11.438a2,2,0,0,1,.449-1.223,3.066,3.066,0,0,1,1.219-.934A4.1,4.1,0,0,1,14.8,8.391a3.342,3.342,0,0,1,2.289.73,2.635,2.635,0,0,1,.859,2.012v3.891a4.757,4.757,0,0,0,.3,1.852V17Zm-2.4-1.1a2.54,2.54,0,0,0,1.289-.352,2.127,2.127,0,0,0,.883-.914V12.9H15.367q-2.656,0-2.656,1.555a1.316,1.316,0,0,0,.453,1.063A1.742,1.742,0,0,0,14.328,15.9Zm13.023-3.031a5.062,5.062,0,0,1-.883,3.109,2.829,2.829,0,0,1-2.391,1.18,3.1,3.1,0,0,1-2.422-.977v4.07H20.211V8.547h1.32l.07.938a2.977,2.977,0,0,1,2.453-1.094,2.882,2.882,0,0,1,2.41,1.148,5.117,5.117,0,0,1,.887,3.2ZM25.906,12.7a3.735,3.735,0,0,0-.609-2.258,1.963,1.963,0,0,0-1.672-.828,2.125,2.125,0,0,0-1.969,1.164V14.82a2.129,2.129,0,0,0,1.984,1.156,1.954,1.954,0,0,0,1.652-.824A4.077,4.077,0,0,0,25.906,12.7ZM30.758,17H29.313V8.547h1.445ZM29.2,6.3a.863.863,0,0,1,.215-.594.807.807,0,0,1,.637-.242.819.819,0,0,1,.641.242.854.854,0,0,1,.219.594.826.826,0,0,1-.219.586.834.834,0,0,1-.641.234.821.821,0,0,1-.637-.234A.834.834,0,0,1,29.2,6.3Zm5.836.2V8.547h1.578V9.664H35.031v5.249a1.173,1.173,0,0,0,.211.763.888.888,0,0,0,.719.254,3.5,3.5,0,0,0,.688-.094V17a4.215,4.215,0,0,1-1.109.155,1.8,1.8,0,0,1-1.461-.586,2.517,2.517,0,0,1-.492-1.664V9.664H32.047V8.547h1.539V6.5ZM43.516,17a3.036,3.036,0,0,1-.2-.891,3.225,3.225,0,0,1-2.406,1.047,2.984,2.984,0,0,1-2.051-.707,2.287,2.287,0,0,1-.8-1.793,2.39,2.39,0,0,1,1-2.051,4.733,4.733,0,0,1,2.824-.73h1.406v-.664A1.623,1.623,0,0,0,42.836,10,1.821,1.821,0,0,0,41.5,9.555a2.107,2.107,0,0,0-1.3.391,1.151,1.151,0,0,0-.523.945H38.227a2,2,0,0,1,.449-1.223,3.066,3.066,0,0,1,1.219-.934,4.1,4.1,0,0,1,1.691-.344,3.342,3.342,0,0,1,2.289.73,2.635,2.635,0,0,1,.859,2.012v3.891a4.757,4.757,0,0,0,.3,1.852V17Zm-2.4-1.1a2.54,2.54,0,0,0,1.289-.352,2.127,2.127,0,0,0,.883-.914V12.9H42.156q-2.656,0-2.656,1.555a1.316,1.316,0,0,0,.453,1.063A1.742,1.742,0,0,0,41.117,15.9ZM48.57,17H47.125V5H48.57Z" transform="translate(858.774 1303.987)" fill="#12263f"/>
    <path id="Trazado_595571" data-name="Trazado 595571" d="M9.719,15.508a3.465,3.465,0,0,1-1.613,1.238,6.517,6.517,0,0,1-2.41.41A4.674,4.674,0,0,1,3.227,16.5a4.346,4.346,0,0,1-1.668-1.855,6.408,6.408,0,0,1-.605-2.789v-.992a5.982,5.982,0,0,1,1.2-3.984A4.179,4.179,0,0,1,5.523,5.469a4.316,4.316,0,0,1,2.867.91A3.965,3.965,0,0,1,9.719,8.961h-1.5A2.48,2.48,0,0,0,5.531,6.7a2.655,2.655,0,0,0-2.285,1.06,5.173,5.173,0,0,0-.785,3.069v.93A4.848,4.848,0,0,0,3.336,14.8,2.836,2.836,0,0,0,5.7,15.93a5.228,5.228,0,0,0,1.477-.187,2.283,2.283,0,0,0,1.047-.631V12.563H5.594V11.336H9.719ZM17.211,17a3.036,3.036,0,0,1-.2-.891A3.225,3.225,0,0,1,14.6,17.156a2.984,2.984,0,0,1-2.051-.707,2.287,2.287,0,0,1-.8-1.793,2.39,2.39,0,0,1,1-2.051,4.733,4.733,0,0,1,2.824-.73h1.406v-.664A1.623,1.623,0,0,0,16.531,10,1.821,1.821,0,0,0,15.2,9.555a2.107,2.107,0,0,0-1.3.391,1.151,1.151,0,0,0-.523.945H11.922a2,2,0,0,1,.449-1.223,3.066,3.066,0,0,1,1.219-.934,4.1,4.1,0,0,1,1.691-.344,3.342,3.342,0,0,1,2.289.73,2.635,2.635,0,0,1,.859,2.012v3.891a4.757,4.757,0,0,0,.3,1.852V17Zm-2.4-1.1a2.54,2.54,0,0,0,1.289-.352,2.127,2.127,0,0,0,.883-.914V12.9H15.852q-2.656,0-2.656,1.555a1.316,1.316,0,0,0,.453,1.063A1.742,1.742,0,0,0,14.813,15.9Zm10.8-1.141a1.064,1.064,0,0,0-.441-.91,4.249,4.249,0,0,0-1.539-.559,7.277,7.277,0,0,1-1.742-.562,2.479,2.479,0,0,1-.953-.781,1.869,1.869,0,0,1-.309-1.078,2.193,2.193,0,0,1,.879-1.758,3.432,3.432,0,0,1,2.246-.719,3.532,3.532,0,0,1,2.332.742,2.357,2.357,0,0,1,.895,1.9H25.531a1.3,1.3,0,0,0-.5-1.023,1.888,1.888,0,0,0-1.27-.43,1.976,1.976,0,0,0-1.234.344,1.082,1.082,0,0,0-.445.9.877.877,0,0,0,.414.789,5.1,5.1,0,0,0,1.5.508,7.8,7.8,0,0,1,1.754.578,2.558,2.558,0,0,1,1,.809,1.988,1.988,0,0,1,.324,1.152,2.163,2.163,0,0,1-.906,1.816,3.8,3.8,0,0,1-2.352.684,4.257,4.257,0,0,1-1.8-.359,2.922,2.922,0,0,1-1.223-1,2.42,2.42,0,0,1-.441-1.395h1.445a1.5,1.5,0,0,0,.582,1.152,2.258,2.258,0,0,0,1.434.426,2.331,2.331,0,0,0,1.316-.332A1.02,1.02,0,0,0,25.617,14.758ZM30.906,6.5V8.547h1.578V9.664H30.906v5.249a1.173,1.173,0,0,0,.211.763.888.888,0,0,0,.719.254,3.5,3.5,0,0,0,.688-.094V17a4.215,4.215,0,0,1-1.109.155,1.8,1.8,0,0,1-1.461-.586,2.517,2.517,0,0,1-.492-1.664V9.664H27.922V8.547h1.539V6.5Zm2.727,6.2a4.993,4.993,0,0,1,.488-2.234A3.643,3.643,0,0,1,35.48,8.93a3.7,3.7,0,0,1,1.988-.539,3.565,3.565,0,0,1,2.793,1.2,4.6,4.6,0,0,1,1.066,3.18v.1a5.036,5.036,0,0,1-.473,2.215A3.589,3.589,0,0,1,39.5,16.609a3.743,3.743,0,0,1-2.02.547,3.556,3.556,0,0,1-2.785-1.2A4.575,4.575,0,0,1,33.633,12.8Zm1.453.172a3.616,3.616,0,0,0,.652,2.258,2.211,2.211,0,0,0,3.5-.012,3.955,3.955,0,0,0,.648-2.418,3.61,3.61,0,0,0-.66-2.254,2.1,2.1,0,0,0-1.754-.863,2.075,2.075,0,0,0-1.727.852A3.925,3.925,0,0,0,35.086,12.867Zm12.977,1.891a1.064,1.064,0,0,0-.441-.91,4.249,4.249,0,0,0-1.539-.559,7.277,7.277,0,0,1-1.742-.562,2.479,2.479,0,0,1-.953-.781,1.869,1.869,0,0,1-.309-1.078,2.193,2.193,0,0,1,.879-1.758A3.432,3.432,0,0,1,46.2,8.391a3.532,3.532,0,0,1,2.332.742,2.357,2.357,0,0,1,.895,1.9H47.977a1.3,1.3,0,0,0-.5-1.023,1.888,1.888,0,0,0-1.27-.43,1.976,1.976,0,0,0-1.234.344,1.082,1.082,0,0,0-.445.9.877.877,0,0,0,.414.789,5.1,5.1,0,0,0,1.5.508,7.8,7.8,0,0,1,1.754.578,2.558,2.558,0,0,1,1,.809,1.988,1.988,0,0,1,.324,1.152,2.163,2.163,0,0,1-.906,1.816,3.8,3.8,0,0,1-2.352.684,4.257,4.257,0,0,1-1.8-.359,2.922,2.922,0,0,1-1.223-1,2.42,2.42,0,0,1-.441-1.395h1.445a1.5,1.5,0,0,0,.582,1.152,2.258,2.258,0,0,0,1.434.426,2.331,2.331,0,0,0,1.316-.332A1.02,1.02,0,0,0,48.063,14.758Z" transform="translate(1226 1154.466)" fill="#12263f"/>
    <path id="Trazado_216458" data-name="Trazado 216458" d="M-169.986,81.228V-.173H83.785" transform="translate(601.215 944.72)" fill="none" stroke="#5b4794" stroke-linecap="round" stroke-width="3"/>
    <path id="Trazado_216459" data-name="Trazado 216459" d="M83.785,81.227V-.173H-169.986" transform="translate(1084.985 944.72)" fill="none" stroke="#5b4794" stroke-linecap="round" stroke-width="3"/>
    <path id="Trazado_216460" data-name="Trazado 216460" d="M83.785,81.227v-65.4" transform="translate(716.425 944.72)" fill="none" stroke="#5b4794" stroke-linecap="round" stroke-width="3"/>
    <path id="Trazado_216461" data-name="Trazado 216461" d="M83.785,15.827V72.306h22.6" transform="translate(706.215 1091.66)" fill="none" stroke="#5b4794" stroke-linecap="round" stroke-width="3"/>
    <path id="Trazado_216464" data-name="Trazado 216464" d="M83.785,15.827V72.306h22.6" transform="translate(1066.429 1091.66)" fill="none" stroke="#5b4794" stroke-linecap="round" stroke-width="3"/>
    <path id="Trazado_216462" data-name="Trazado 216462" d="M83.785-3.173V72.306h22.6" transform="translate(706.215 1167.16)" fill="none" stroke="#5b4794" stroke-linecap="round" stroke-width="3"/>
    <path id="Trazado_216465" data-name="Trazado 216465" d="M83.785-3.173V72.306h22.6" transform="translate(1066.429 1167.16)" fill="none" stroke="#5b4794" stroke-linecap="round" stroke-width="3"/>
    <path id="Trazado_216463" data-name="Trazado 216463" d="M83.785-2.173V72.306h22.6" transform="translate(706.215 1242.934)" fill="none" stroke="#5b4794" stroke-linecap="round" stroke-width="3"/>
    <path id="Trazado_216466" data-name="Trazado 216466" d="M83.785-2.173V72.306h22.6" transform="translate(1066.429 1242.934)" fill="none" stroke="#5b4794" stroke-linecap="round" stroke-width="3"/>
    <path id="Trazado_595572" data-name="Trazado 595572" d="M5.3,0A5.3,5.3,0,1,1,0,5.3,5.3,5.3,0,0,1,5.3,0Z" transform="translate(426.144 1025.947)" fill="#ff6d4b" stroke="#5b4794" stroke-width="3"/>
    <path id="Trazado_595573" data-name="Trazado 595573" d="M5.3,0A5.3,5.3,0,1,1,0,5.3,5.3,5.3,0,0,1,5.3,0Z" transform="translate(1163.266 1025.947)" fill="#ff6d4b" stroke="#5b4794" stroke-width="3"/>
    <path id="Trazado_595574" data-name="Trazado 595574" d="M5.3,0A5.3,5.3,0,1,1,0,5.3,5.3,5.3,0,0,1,5.3,0Z" transform="translate(794.704 1025.947)" fill="#ff6d4b" stroke="#5b4794" stroke-width="3"/>
    <path id="Trazado_595575" data-name="Trazado 595575" d="M5.3,0A5.3,5.3,0,1,1,0,5.3,5.3,5.3,0,0,1,5.3,0Z" transform="translate(813.704 1158.67)" fill="#ff6d4b" stroke="#5b4794" stroke-width="3"/>
    <path id="Trazado_595576" data-name="Trazado 595576" d="M5.3,0A5.3,5.3,0,1,1,0,5.3,5.3,5.3,0,0,1,5.3,0Z" transform="translate(1173.918 1158.67)" fill="#ff6d4b" stroke="#5b4794" stroke-width="3"/>
    <path id="Trazado_595577" data-name="Trazado 595577" d="M5.3,0A5.3,5.3,0,1,1,0,5.3,5.3,5.3,0,0,1,5.3,0Z" transform="translate(813.704 1234.17)" fill="#ff6d4b" stroke="#5b4794" stroke-width="3"/>
    <path id="Trazado_595578" data-name="Trazado 595578" d="M5.3,0A5.3,5.3,0,1,1,0,5.3,5.3,5.3,0,0,1,5.3,0Z" transform="translate(1173.918 1234.17)" fill="#ff6d4b" stroke="#5b4794" stroke-width="3"/>
    <path id="Trazado_595579" data-name="Trazado 595579" d="M5.3,0A5.3,5.3,0,1,1,0,5.3,5.3,5.3,0,0,1,5.3,0Z" transform="translate(813.704 1309.943)" fill="#ff6d4b" stroke="#5b4794" stroke-width="3"/>
    <path id="Trazado_595580" data-name="Trazado 595580" d="M5.3,0A5.3,5.3,0,1,1,0,5.3,5.3,5.3,0,0,1,5.3,0Z" transform="translate(1173.918 1309.943)" fill="#ff6d4b" stroke="#5b4794" stroke-width="3"/>
    <g id="bolsa-de-dinero" transform="translate(287.008 1116.272)">
      <g id="Grupo_154380" data-name="Grupo 154380" transform="translate(1.511 1.708)">
        <g id="Grupo_154371" data-name="Grupo 154371" transform="translate(42.321 6.469)">
          <path id="Trazado_216467" data-name="Trazado 216467" d="M38.706,6.28l4.9,14.692H39.069L30,11.9a5.14,5.14,0,0,1,4.5-5.094l4.187-.529Z" transform="translate(-30 -6.28)" fill="#d3a06c"/>
        </g>
        <g id="Grupo_154372" data-name="Grupo 154372" transform="translate(49.878)">
          <path id="Trazado_216468" data-name="Trazado 216468" d="M56.161,3.511,54.649,8.424,50.115,23.161H41.046l-4.9-14.692L35,5.023l7.557-1.511L45.58,8.046,50.115,2Z" transform="translate(-35 -2)" fill="#d3a06c"/>
        </g>
        <g id="Grupo_154373" data-name="Grupo 154373" transform="translate(64.993 6.424)">
          <path id="Trazado_216469" data-name="Trazado 216469" d="M58.6,11.918l-9.069,9.069H45L49.534,6.25l4.565.574A5.14,5.14,0,0,1,58.6,11.918Z" transform="translate(-45 -6.25)" fill="#d3a06c"/>
        </g>
        <g id="Grupo_154374" data-name="Grupo 154374" transform="translate(45.344 21.161)">
          <path id="Trazado_216470" data-name="Trazado 216470" d="M59.206,16a3.032,3.032,0,0,1,3.023,3.023,3.045,3.045,0,0,1-3.023,3.023H35.023A3.032,3.032,0,0,1,32,19.023,3.045,3.045,0,0,1,35.023,16H59.206Z" transform="translate(-32 -16)" fill="#ccd1d9"/>
        </g>
        <g id="Grupo_154375" data-name="Grupo 154375" transform="translate(30.229 27.207)">
          <path id="Trazado_216471" data-name="Trazado 216471" d="M49.206,65.344V53.253H22.3a29.143,29.143,0,0,1-.3-4.172A28.383,28.383,0,0,1,35.014,25.23L43.161,20H61.3l8.147,5.23A28.358,28.358,0,0,1,54.1,77.436H50.355c-.393,0-.771-.015-1.149-.03Z" transform="translate(-22 -20)" fill="#cf9e76"/>
        </g>
        <g id="Grupo_154376" data-name="Grupo 154376" transform="translate(22.672 60.459)">
          <path id="Trazado_216472" data-name="Trazado 216472" d="M51.764,66.153V72.23H17A15.115,15.115,0,0,0,17,42H51.764V66.153Z" transform="translate(-17 -42)" fill="#b4dd7f"/>
        </g>
        <g id="Grupo_154377" data-name="Grupo 154377" transform="translate(7.557 60.459)">
          <ellipse id="Elipse_4776" data-name="Elipse 4776" cx="15.115" cy="15.115" rx="15.115" ry="15.115" fill="#fcd770"/>
        </g>
        <g id="Grupo_154378" data-name="Grupo 154378" transform="translate(0 54.413)">
          <path id="Trazado_216473" data-name="Trazado 216473" d="M17.115,44.046h7.557a15.115,15.115,0,0,0,0,30.23H8.046A6.044,6.044,0,0,1,2,68.23V38a6.044,6.044,0,0,0,6.046,6.046Z" transform="translate(-2 -38)" fill="#b4dd7f"/>
        </g>
        <g id="Grupo_154379" data-name="Grupo 154379" transform="translate(0 48.367)">
          <path id="Trazado_216474" data-name="Trazado 216474" d="M17.115,34V46.092H8.046A6.046,6.046,0,1,1,8.046,34Z" transform="translate(-2 -34)" fill="#a0d468"/>
        </g>
      </g>
      <g id="Grupo_154381" data-name="Grupo 154381" transform="translate(0 0)">
        <path id="Trazado_216475" data-name="Trazado 216475" d="M25,40.077l3.023.047a21.068,21.068,0,0,1,.236-2.823l-2.99-.452A24.1,24.1,0,0,0,25,40.077Z" transform="translate(11.276 17.532)"/>
        <path id="Trazado_216476" data-name="Trazado 216476" d="M35.6,26.4a23.788,23.788,0,0,0-9.939,13.182l2.9.865a20.769,20.769,0,0,1,8.679-11.5l1.927-1.238-1.634-2.542Z" transform="translate(11.613 11.557)"/>
        <path id="Trazado_216477" data-name="Trazado 216477" d="M60.066,38.981l-3.023.056,0,.337a20.812,20.812,0,0,1-.138,2.4l3,.346a24.08,24.08,0,0,0,.157-2.74Z" transform="translate(27.596 18.623)"/>
        <path id="Trazado_216478" data-name="Trazado 216478" d="M47.677,57.119l.976,2.861A23.794,23.794,0,0,0,63.99,43.561l-2.922-.78A20.773,20.773,0,0,1,47.677,57.119Z" transform="translate(22.874 20.567)"/>
        <path id="Trazado_216479" data-name="Trazado 216479" d="M81,33.746l-4.3-2.766a4.513,4.513,0,0,0-1.063-8.7L82.619,15.3V14.67a6.657,6.657,0,0,0-5.824-6.6l-2.783-.348,1.451-4.714L66.9.87,63.043,6.009l-2.4-3.6L50.413,4.455l1.108,3.322-2.378.3a6.657,6.657,0,0,0-5.822,6.6V15.3l6.989,6.989a4.513,4.513,0,0,0-1.063,8.7l-4.3,2.766A29.737,29.737,0,0,0,31.229,58.867c0,.887.053,1.774.13,2.659H19.138V49.434H8.557A7.566,7.566,0,0,0,1,56.991v30.23a7.566,7.566,0,0,0,7.557,7.557h52.9V88.732h3.387A29.865,29.865,0,0,0,81,33.746ZM76.421,11.072a3.634,3.634,0,0,1,3.129,3.017l-8.136,8.138H69.551l3.559-11.569ZM59.252,5.77,62.9,11.239l5.215-6.953,3.525.881-5.249,17.06H59.525L54.365,6.748Zm-9.732,5.3L52.5,10.7l3.842,11.527H54.527l-8.136-8.138a3.634,3.634,0,0,1,3.129-3.017ZM50.878,25.25H75.062a1.511,1.511,0,0,1,0,3.023H50.878a1.511,1.511,0,0,1,0-3.023ZM8.557,52.457h7.557v9.069H8.557a4.534,4.534,0,0,1,0-9.069Zm0,39.3a4.54,4.54,0,0,1-4.534-4.534V63.034a7.517,7.517,0,0,0,4.534,1.514h7.1a16.587,16.587,0,0,0,0,27.207ZM25.183,64.549a13.6,13.6,0,1,1-13.6,13.6A13.619,13.619,0,0,1,25.183,64.549ZM58.436,91.755H34.713a16.587,16.587,0,0,0,0-27.207H58.436Zm3.023-27.847a7.482,7.482,0,0,0,3.023.641,4.534,4.534,0,0,1,0,9.069H61.459Zm3.387,21.8H61.459V76.64h3.023a7.557,7.557,0,0,0,0-15.115,4.534,4.534,0,0,1,0-9.069h4.534v4.534h3.023V49.434H65.993V46.411H62.97v3.176a7.57,7.57,0,0,0-6.046,7.4,7.479,7.479,0,0,0,1.551,4.534H34.4c-.086-.883-.147-1.77-.147-2.659A26.733,26.733,0,0,1,46.578,36.288L54.344,31.3H71.6l7.766,4.992A26.842,26.842,0,0,1,64.846,85.709Z" transform="translate(-1 -0.87)"/>
        <path id="Trazado_216480" data-name="Trazado 216480" d="M17.534,66.161h3.023V63.138a4.534,4.534,0,0,0,0-9.069H17.534a1.511,1.511,0,0,1,0-3.023h4.534v1.511h3.023V48.023H20.557V45H17.534v3.023a4.534,4.534,0,0,0,0,9.069h3.023a1.511,1.511,0,0,1,0,3.023H16.023V58.6H13v4.534h4.534Z" transform="translate(5.138 21.702)"/>
        <path id="Trazado_216481" data-name="Trazado 216481" d="M36.534,52.557h3.023V45H32v3.023h4.534Z" transform="translate(14.855 21.702)"/>
        <path id="Trazado_216482" data-name="Trazado 216482" d="M39.557,54H36.534v4.534H32v3.023h7.557Z" transform="translate(14.855 26.305)"/>
      </g>
    </g>
    <g id="aumento" transform="translate(653 1119.104)">
      <path id="Trazado_216483" data-name="Trazado 216483" d="M105.223,10,90.175,14.032l3.03,3.029L71.532,38.735,52.945,20.148l-29.09,29.09L28.813,54.2,52.945,30.062,71.532,48.648,98.162,22.018l3.029,3.03Zm0,0" transform="translate(-19.675 -8.247)" fill="#f8a2aa"/>
      <path id="Trazado_216484" data-name="Trazado 216484" d="M96.223,280.929H10V233.961H96.223Zm0,0" transform="translate(-8.247 -192.958)" fill="#91d9b9"/>
      <path id="Trazado_216485" data-name="Trazado 216485" d="M56.178,306.908h59.848a6.177,6.177,0,0,1,6.178-6.178V280.139a6.177,6.177,0,0,1-6.178-6.178H56.178A6.177,6.177,0,0,1,50,280.139v20.592A6.177,6.177,0,0,1,56.178,306.908Zm0,0" transform="translate(-41.237 -225.948)" fill="#fff"/>
      <path id="Trazado_216486" data-name="Trazado 216486" d="M228.377,333.048a7.419,7.419,0,1,1-7.419-7.419A7.419,7.419,0,0,1,228.377,333.048Zm0,0" transform="translate(-176.116 -268.561)" fill="#91d9b9"/>
      <path id="Trazado_216487" data-name="Trazado 216487" d="M398.824,462.373H386.206a4.206,4.206,0,0,1,0-8.412h12.618a4.206,4.206,0,0,1,0,8.412Zm0,0" transform="translate(-315.054 -374.403)" fill="#ffcb7c"/>
      <path id="Trazado_216488" data-name="Trazado 216488" d="M398.824,414.373H386.206a4.206,4.206,0,0,1,0-8.412h12.618a4.206,4.206,0,0,1,0,8.412Zm0,0" transform="translate(-315.054 -334.815)" fill="#ffd89e"/>
      <path id="Trazado_216489" data-name="Trazado 216489" d="M278.824,462.373H266.206a4.206,4.206,0,0,1,0-8.412h12.618a4.206,4.206,0,0,1,0,8.412Zm0,0" transform="translate(-216.084 -374.403)" fill="#ffcb7c"/>
      <path id="Trazado_216490" data-name="Trazado 216490" d="M278.824,414.373H266.206a4.206,4.206,0,0,1,0-8.412h12.618a4.206,4.206,0,0,1,0,8.412Zm0,0" transform="translate(-216.084 -334.815)" fill="#ffd89e"/>
      <path id="Trazado_216491" data-name="Trazado 216491" d="M398.824,366.373H386.206a4.206,4.206,0,0,1,0-8.412h12.618a4.206,4.206,0,0,1,0,8.412Zm0,0" transform="translate(-315.054 -295.227)" fill="#ffd89e"/>
      <path id="Trazado_216492" data-name="Trazado 216492" d="M117.309,357.961h-4.557a1.753,1.753,0,0,0,0,3.505h4.557a1.753,1.753,0,0,0,0-3.505Zm0,0" transform="translate(-91.547 -295.227)"/>
      <path id="Trazado_216493" data-name="Trazado 216493" d="M87.976,39.249H55.486l23-23,1.79,1.79a1.752,1.752,0,0,0,2.932-.786L87.24,2.205A1.752,1.752,0,0,0,85.094.059L70.046,4.091a1.752,1.752,0,0,0-.786,2.932l1.791,1.79L51.856,28.008,34.509,10.66a1.753,1.753,0,0,0-2.478,0L3.442,39.249H1.752A1.752,1.752,0,0,0,0,41V87.969a1.753,1.753,0,0,0,1.753,1.753H87.976a1.753,1.753,0,0,0,1.753-1.753V41a1.752,1.752,0,0,0-1.753-1.753Zm-40.308,36.1A2.456,2.456,0,0,1,50.122,72.9H62.74a2.454,2.454,0,0,1,0,4.907H50.122A2.456,2.456,0,0,1,47.668,75.351Zm-2.827-5.2a5.667,5.667,0,1,1,5.667-5.666A5.673,5.673,0,0,1,44.841,70.152ZM68.7,66.939a2.456,2.456,0,0,1,2.454-2.454H83.77a2.454,2.454,0,0,1,0,4.907H71.152A2.457,2.457,0,0,1,68.7,66.939Zm0,8.412A2.456,2.456,0,0,1,71.152,72.9H83.77a2.454,2.454,0,0,1,0,4.907H71.152A2.456,2.456,0,0,1,68.7,75.351ZM33.27,14.378,50.617,31.726a1.754,1.754,0,0,0,2.479,0L74.768,10.053a1.753,1.753,0,0,0,0-2.479l-.883-.883L83.069,4.23l-2.461,9.184-.883-.883a1.754,1.754,0,0,0-2.479,0l-25.39,25.39L34.509,20.575a1.752,1.752,0,0,0-2.478,0L13.356,39.249H8.4ZM48.227,39.249H18.313L33.27,24.292ZM3.5,86.217V42.754H86.223V61.511a5.916,5.916,0,0,0-2.454-.531H82.718V54.189a1.752,1.752,0,0,0-1.753-1.753,4.43,4.43,0,0,1-4.425-4.425,1.752,1.752,0,0,0-1.753-1.753H52.75a1.753,1.753,0,0,0,0,3.505h20.48a7.957,7.957,0,0,0,5.982,5.983V60.98H71.152a5.955,5.955,0,0,0-4.416,9.954,5.936,5.936,0,0,0-4-1.542H52.584a9.168,9.168,0,1,0-8.171,4.253,5.943,5.943,0,0,0,1.171,5.561H16.5a7.957,7.957,0,0,0-5.982-5.983V55.747A7.958,7.958,0,0,0,16.5,49.764h20.48a1.753,1.753,0,0,0,0-3.505H14.94a1.753,1.753,0,0,0-1.753,1.753,4.43,4.43,0,0,1-4.425,4.425A1.753,1.753,0,0,0,7.01,54.189V74.781a1.752,1.752,0,0,0,1.753,1.753,4.43,4.43,0,0,1,4.425,4.425,1.752,1.752,0,0,0,1.753,1.753H44.257a5.983,5.983,0,0,0-.094,1.052,5.922,5.922,0,0,0,.531,2.454H3.5Zm46.617,0a2.454,2.454,0,0,1,0-4.907H62.74a2.454,2.454,0,0,1,0,4.907Zm21.03,0a2.454,2.454,0,0,1,0-4.907H83.77a2.454,2.454,0,0,1,0,4.907Zm0,0" transform="translate(0 0.001)"/>
      <path id="Trazado_216494" data-name="Trazado 216494" d="M247.753,267.6a1.753,1.753,0,1,0-1.239-.513A1.766,1.766,0,0,0,247.753,267.6Zm0,0" transform="translate(-202.888 -217.807)"/>
    </g>
    <g id="soborno" transform="translate(1020 1085.666)">
      <path id="Trazado_216495" data-name="Trazado 216495" d="M23.033,178.4H98.2v52.036H23.033Z" transform="translate(-18.746 -107.317)" fill="#80564d"/>
      <path id="Trazado_216496" data-name="Trazado 216496" d="M23.033,178.4v43.364h5.584V202.98a1.3,1.3,0,0,1,1.576-1.274l13.076,2.8V184.17Z" transform="translate(-18.746 -107.317)" fill="#66443d"/>
      <path id="Trazado_216497" data-name="Trazado 216497" d="M23.033,411.369h5.881a2.792,2.792,0,0,1,2.792,2.792v5.881H23.033Z" transform="translate(-18.746 -296.923)" fill="#ffea80"/>
      <path id="Trazado_216498" data-name="Trazado 216498" d="M23.033,411.369h5.584v8.672H23.033Z" transform="translate(-18.746 -296.923)" fill="#ffcb66"/>
      <path id="Trazado_216499" data-name="Trazado 216499" d="M388.922,411.369h-5.881a2.792,2.792,0,0,0-2.792,2.792v5.881h8.673Z" transform="translate(-309.471 -296.923)" fill="#ffea80"/>
      <path id="Trazado_216500" data-name="Trazado 216500" d="M0,0H69.381V40.473H0Z" transform="translate(93.905 117.326) rotate(180)" fill="#b3ffb3"/>
      <path id="Trazado_216501" data-name="Trazado 216501" d="M189.569,209.4H131.751v28.909a11.511,11.511,0,0,1,5.584,1.435v-7.2a1.3,1.3,0,0,1,1.576-1.274l4.4.944v5.645a1.3,1.3,0,0,0,1.3,1.3H158.6V220.158h-.887a10.742,10.742,0,0,1,8.728-4.972c5.748,0,10.516,5.242,11.412,12.111l7.934-1.7a9.552,9.552,0,0,0,7.386-7.8A11.531,11.531,0,0,1,189.569,209.4Z" transform="translate(-107.227 -132.551)" fill="#9ef29e"/>
      <path id="Trazado_216502" data-name="Trazado 216502" d="M453.937,220.967A11.563,11.563,0,0,1,442.374,209.4h11.564Z" transform="translate(-360.033 -132.551)" fill="#78d978"/>
      <ellipse id="Elipse_4777" data-name="Elipse 4777" cx="11.563" cy="14.455" rx="11.563" ry="14.455" transform="translate(47.651 82.635)" fill="#ffea80"/>
      <path id="Trazado_216503" data-name="Trazado 216503" d="M446.1,209.4h-3.723a11.531,11.531,0,0,0,3.605,8.389,9.36,9.36,0,0,0,.118-1.479Z" transform="translate(-360.033 -132.551)" fill="#56bf67"/>
      <path id="Trazado_216504" data-name="Trazado 216504" d="M267.563,240.466c-6.386,0-11.563,6.472-11.563,14.455a18.088,18.088,0,0,0,.178,2.541l22.8-4.885c-.9-6.868-5.664-12.111-11.412-12.111Z" transform="translate(-208.349 -157.831)" fill="#ffcb66"/>
      <path id="Trazado_216505" data-name="Trazado 216505" d="M131.75,364.716a11.564,11.564,0,0,1,11.563,11.563H131.75Z" transform="translate(-107.227 -258.954)" fill="#78d978"/>
      <path id="Trazado_216506" data-name="Trazado 216506" d="M137.335,376.279V366.15a11.511,11.511,0,0,0-5.584-1.435v11.563h5.584Z" transform="translate(-107.227 -258.953)" fill="#56bf67"/>
      <path id="Trazado_216507" data-name="Trazado 216507" d="M453.937,364.716a11.564,11.564,0,0,0-11.563,11.563h11.564Z" transform="translate(-360.033 -258.954)" fill="#78d978"/>
      <path id="Trazado_216508" data-name="Trazado 216508" d="M100.689,116.277h11.564v5.781H100.689Z" transform="translate(-81.947 -56.758)" fill="#ffea80"/>
      <path id="Trazado_216509" data-name="Trazado 216509" d="M100.689,116.277h5.584v5.781h-5.584Z" transform="translate(-81.947 -56.758)" fill="#ffcb66"/>
      <path id="Trazado_216510" data-name="Trazado 216510" d="M287.062,116.277h11.564v5.781H287.062Z" transform="translate(-233.63 -56.758)" fill="#ffea80"/>
      <path id="Trazado_216511" data-name="Trazado 216511" d="M287.062,116.277h5.584v5.781h-5.584Z" transform="translate(-233.63 -56.758)" fill="#ffcb66"/>
      <g id="Grupo_154383" data-name="Grupo 154383" transform="translate(21.61 47.933)">
        <g id="Grupo_154382" data-name="Grupo 154382" transform="translate(0 0)">
          <path id="Trazado_216512" data-name="Trazado 216512" d="M156.618,65.642h-5.826V59.86H121.927v5.782H116.1v-5.9a5.712,5.712,0,0,1,5.705-5.705h29.107a5.712,5.712,0,0,1,5.705,5.705Z" transform="translate(-116.101 -54.034)" fill="#cfe1fe"/>
        </g>
      </g>
      <circle id="Elipse_4778" data-name="Elipse 4778" cx="2.891" cy="2.891" r="2.891" transform="translate(79.451 94.199)" fill="#ffea80"/>
      <path id="Trazado_216513" data-name="Trazado 216513" d="M83.886,171.444l-35.911,7.7-35.911-7.7A5.77,5.77,0,0,1,7.5,165.8v-15.67a2.792,2.792,0,0,1,2.792-2.792H85.655a2.792,2.792,0,0,1,2.792,2.792V165.8A5.77,5.77,0,0,1,83.886,171.444Z" transform="translate(-6.106 -82.038)" fill="#80564d"/>
      <path id="Trazado_216514" data-name="Trazado 216514" d="M13.086,165.8v-15.67a2.792,2.792,0,0,1,2.792-2.792H10.294A2.792,2.792,0,0,0,7.5,150.132V165.8a5.77,5.77,0,0,0,4.561,5.642l4.615.989c-1.938-1.735-3.592-4.107-3.592-6.631Z" transform="translate(-6.106 -82.039)" fill="#66443d"/>
      <path id="Trazado_216515" data-name="Trazado 216515" d="M193.875,287.181h11.564v11.564H193.875Z" transform="translate(-157.788 -195.851)" fill="#cfe1fe"/>
      <path id="Trazado_216516" data-name="Trazado 216516" d="M162.813,209.464H185.94v5.782H162.813Z" transform="translate(-132.508 -132.6)" fill="#ffcb66"/>
      <g id="Grupo_154384" data-name="Grupo 154384" transform="translate(0 46.538)">
        <path id="Trazado_216517" data-name="Trazado 216517" d="M93.905,95.454a1.4,1.4,0,0,0,1.4-1.4v-17.2a1.4,1.4,0,0,0-1.4-1.4H83.737V68.092A4.193,4.193,0,0,0,79.549,63.9H66.392V59.519a1.4,1.4,0,0,0-1.4-1.4H63.522V53.639a7.109,7.109,0,0,0-7.1-7.1H45.441a1.4,1.4,0,1,0,0,2.792h10.98a4.314,4.314,0,0,1,4.309,4.309v4.484H57.7V53.76a1.4,1.4,0,0,0-1.4-1.4H27.436a1.4,1.4,0,0,0-1.4,1.4v4.363H23.006V53.639a4.314,4.314,0,0,1,4.309-4.309H39.356a1.4,1.4,0,1,0,0-2.792H27.315a7.109,7.109,0,0,0-7.1,7.1v4.484H18.742a1.4,1.4,0,0,0-1.4,1.4V63.9H4.188A4.193,4.193,0,0,0,0,68.092V83.763a7.2,7.2,0,0,0,2.891,5.742v33.613a1.4,1.4,0,0,0,1.4,1.4H44.6a1.4,1.4,0,0,0,0-2.792H14.356v-4.484a4.193,4.193,0,0,0-4.188-4.188H5.683V90.774l17.445,3.737v22.814a1.4,1.4,0,0,0,1.4,1.4H69.382v3h-18.7a1.4,1.4,0,0,0,0,2.792H79.45a1.4,1.4,0,0,0,1.4-1.4v-4.4H93.905a1.4,1.4,0,0,0,1.4-1.4V100.141a1.4,1.4,0,0,0-2.792,0v4.3A12.984,12.984,0,0,0,81.02,115.929H37.408a12.984,12.984,0,0,0-11.489-11.488V95.109l8.772,1.879v5.905a1.4,1.4,0,0,0,1.4,1.4H47.671c2.148,5.131,6.516,8.65,11.543,8.65,7.146,0,12.961-7.111,12.961-15.851a19.074,19.074,0,0,0-.633-4.919l6.532-1.4a7.209,7.209,0,0,0,5.59-5.985,12.959,12.959,0,0,0,8.847,4.953v4.32a1.4,1.4,0,0,0,1.4,1.4ZM78.054,121.722h-5.88v-3h5.88Zm14.455-14.468v8.676H83.833A10.19,10.19,0,0,1,92.509,107.254ZM34.6,115.929H25.919v-8.676A10.19,10.19,0,0,1,34.6,115.929ZM63.6,63.9H54.828V60.915H63.6ZM20.138,60.915h8.772V63.9H20.138Zm10.167-2.792H28.832V55.156H54.9v2.967H53.432a1.4,1.4,0,0,0-1.4,1.4V63.9H31.7V59.519a1.4,1.4,0,0,0-1.4-1.4ZM10.168,115.842a1.4,1.4,0,0,1,1.4,1.4v4.484H5.683v-5.88ZM46.255,101.5H37.483V92.726h8.772Zm23.127-4.409c0,7.2-4.562,13.059-10.169,13.059-6.656,0-10.2-7.433-10.166-13.159l5.407-1.159a4.329,4.329,0,0,0,3.966,2.654h1.588a1.5,1.5,0,0,1,0,2.991H58.59a1.224,1.224,0,0,1-1.164-.867,1.4,1.4,0,1,0-2.674.8,3.98,3.98,0,0,0,3.067,2.783v1.725a1.4,1.4,0,1,0,2.792,0v-1.693a4.288,4.288,0,0,0-.6-8.533c-.744.117-2.131.115-2.682-.478l11.481-2.46a16.243,16.243,0,0,1,.576,4.333ZM80.945,83.763a4.4,4.4,0,0,1-3.457,4.277L49.047,94.133v-2.8a1.4,1.4,0,0,0-1.4-1.4H36.087a1.4,1.4,0,0,0-1.4,1.4v2.8L6.25,88.04a4.4,4.4,0,0,1-3.458-4.277V68.092a1.4,1.4,0,0,1,1.4-1.4H79.549a1.4,1.4,0,0,1,1.4,1.4Zm2.888-5.513h8.676v8.675A10.191,10.191,0,0,1,83.833,78.25Z" transform="translate(0 -46.538)"/>
        <path id="Trazado_216518" data-name="Trazado 216518" d="M419.342,299.378a4.287,4.287,0,1,0,4.287-4.287A4.292,4.292,0,0,0,419.342,299.378Zm5.782,0a1.495,1.495,0,1,1-1.495-1.495A1.5,1.5,0,0,1,425.124,299.378Z" transform="translate(-341.288 -248.827)"/>
        <path id="Trazado_216519" data-name="Trazado 216519" d="M179.836,201.964H156.709a1.4,1.4,0,0,0-1.4,1.4v5.782a1.4,1.4,0,0,0,1.4,1.4h23.127a1.4,1.4,0,0,0,1.4-1.4V203.36A1.4,1.4,0,0,0,179.836,201.964Zm-1.4,5.782H158.105v-2.99H178.44Z" transform="translate(-126.404 -173.034)"/>
      </g>
    </g>
  </g>
</svg>
