<svg xmlns="http://www.w3.org/2000/svg" width="50" height="48.994" viewBox="0 0 50 48.994"><g transform="translate(-0.001 -5.153)"><g transform="translate(0.001 5.153)"><path d="M227.123,217.02a.732.732,0,0,0,.786,1.236,5.7,5.7,0,0,0,1.4-1.354l.362.218a.733.733,0,0,0,.754-1.256l-.45-.27c.018-.059.035-.119.051-.18a2.584,2.584,0,0,0-.825-2.562,2.291,2.291,0,0,0-2.323-.514,5.774,5.774,0,0,0-1.213.668l-2.9-1.744a2.389,2.389,0,0,1,.968-.72.732.732,0,0,0-.638-1.319A3.735,3.735,0,0,0,221.5,210.5l-.455-.273a.733.733,0,1,0-.754,1.256l.513.308a3.127,3.127,0,0,0,.952,3.273,2.717,2.717,0,0,0,3.629,0c.12-.1.243-.2.368-.3l2.294,1.378A4.315,4.315,0,0,1,227.123,217.02Zm-4.412-3.066a1.658,1.658,0,0,1-.576-1.362l2.285,1.372A1.28,1.28,0,0,1,222.711,213.954Zm4.693-.248a.857.857,0,0,1,.826.24,1.19,1.19,0,0,1,.409.844l-1.557-.935A2.977,2.977,0,0,1,227.4,213.706Z" transform="translate(-198.457 -189.225)" fill="#5b4794"/><path d="M214.914,321.892a.733.733,0,0,0-1.005.251l-1.064,1.772a.733.733,0,1,0,1.256.754l1.064-1.772A.732.732,0,0,0,214.914,321.892Z" transform="translate(-191.963 -290.863)" fill="#5b4794"/><path d="M313.076,159.881l1.064-1.772a.733.733,0,1,0-1.256-.754l-1.064,1.772a.733.733,0,0,0,1.256.754Z" transform="translate(-281.271 -142.169)" fill="#5b4794"/><path d="M248.485,445.1a.733.733,0,0,0-.755,1.256l.171.1a.733.733,0,0,0,.755-1.256Z" transform="translate(-223.215 -402.035)" fill="#5b4794"/><path d="M103.255,357.87l-.171-.1a.733.733,0,0,0-.754,1.256l.171.1a.733.733,0,1,0,.754-1.256Z" transform="translate(-92.016 -323.234)" fill="#5b4794"/><path d="M431.986,139.574l.171.1a.733.733,0,0,0,.755-1.256l-.171-.1a.733.733,0,1,0-.755,1.256Z" transform="translate(-389.474 -125.218)" fill="#5b4794"/><path d="M286.756,52.348a.733.733,0,0,0,.754-1.256l-.171-.1a.733.733,0,0,0-.754,1.256Z" transform="translate(-258.275 -46.418)" fill="#5b4794"/><path d="M145.956,71.35l-7.941-4.769a.732.732,0,0,0-1.005.251,3.687,3.687,0,0,1-5.053,1.261.733.733,0,0,0-1.005.251l-13.94,23.21a.733.733,0,0,0,.251,1.005,3.686,3.686,0,0,1,1.261,5.053.733.733,0,0,0,.251,1.005l7.941,4.769a.733.733,0,0,0,1.005-.251,3.682,3.682,0,0,1,5.053-1.261.733.733,0,0,0,1.005-.251l2.754-4.585a.732.732,0,1,0-1.256-.754l-2.4,4a5.152,5.152,0,0,0-5.987,1.494l-6.774-4.068a5.159,5.159,0,0,0-1.494-5.987L131.858,69.68a5.159,5.159,0,0,0,5.986-1.494l6.774,4.069a5.159,5.159,0,0,0,1.494,5.986l-9.328,15.53a.732.732,0,0,0,1.256.754l9.678-16.114a.733.733,0,0,0-.251-1.005,3.686,3.686,0,0,1-1.261-5.053.733.733,0,0,0-.251-1.005Z" transform="translate(-105.49 -60.486)" fill="#5b4794"/><path d="M46.016,26l-.959-1.835,3.019-5.026a1.751,1.751,0,0,0-.6-2.4l-11.821-7.1A.733.733,0,1,0,34.9,10.9L46.722,18a.284.284,0,0,1,.1.389L26.306,52.543a.283.283,0,0,1-.389.1L7.032,41.3a.284.284,0,0,1-.1-.389L27.448,6.755a.285.285,0,0,1,.389-.1l4.525,2.718a.753.753,0,0,0,1.02-.216.732.732,0,0,0-.239-1.024L28.591,5.4a1.751,1.751,0,0,0-2.4.6l-3.019,5.026-2.071.015a35.286,35.286,0,0,0-15.216,3.6.732.732,0,1,0,.646,1.315,33.813,33.813,0,0,1,14.581-3.448l1.176-.009L12.5,28.8a4.229,4.229,0,0,1-2.118,1.774,1.022,1.022,0,0,1-.908-.076.985.985,0,0,1-.292-1.381l2.381-3.554a1.09,1.09,0,0,0-1.337-1.608L6.547,25.537a1.406,1.406,0,0,1-1.931-1.174A1.339,1.339,0,0,1,5,23.311l2.113-2.165a1.017,1.017,0,0,0-1.1-1.655L3.065,20.668A1.176,1.176,0,0,1,1.47,19.5a1.129,1.129,0,0,1,.507-.845c.607-.428,1.249-.849,1.908-1.251a.751.751,0,0,0,.314-.935.733.733,0,0,0-1.051-.331c-1.124.683-1.831,1.195-2.057,1.349A2.568,2.568,0,0,0,.01,19.385a2.643,2.643,0,0,0,3.6,2.643l.973-.389-.634.649a2.822,2.822,0,0,0-.794,2.187,2.872,2.872,0,0,0,3.971,2.408L9.638,25.8,7.964,28.3a2.438,2.438,0,0,0-.276,2.18,2.4,2.4,0,0,0,.755,1.077,2.417,2.417,0,0,0,2.1.492l-4.868,8.1a1.751,1.751,0,0,0,.6,2.4L25.162,53.9a1.747,1.747,0,0,0,2.4-.6l4.866-8.1a2.449,2.449,0,0,0,4.524.517l1.42-2.652.226,2.726a2.872,2.872,0,0,0,3.991,2.374,2.822,2.822,0,0,0,1.557-1.729l.275-.865.113,1.042a2.643,2.643,0,0,0,4.024,1.937A2.569,2.569,0,0,0,49.724,46.7,35.093,35.093,0,0,0,46.016,26Zm2.255,20.512a1.11,1.11,0,0,1-1.433.92,1.169,1.169,0,0,1-.846-.986c-.1-.926-.239-2.2-.343-3.148a1.017,1.017,0,0,0-1.98-.2l-.918,2.883a1.388,1.388,0,0,1-2.693-.322l-.331-3.991a1.09,1.09,0,0,0-2.047-.424L35.661,45.02a.984.984,0,0,1-1.406.36,1.019,1.019,0,0,1-.443-.732v0a4.228,4.228,0,0,1,.571-2.7l9.791-16.3.545,1.042a33.418,33.418,0,0,1,3.553,19.833Z" transform="translate(-0.001 -5.153)" fill="#5b4794"/><path d="M98.707,118.872c.036-.023,3.613-2.241,6.961-1.393a.732.732,0,0,0,.36-1.42c-3.951-1-7.934,1.467-8.1,1.573a.733.733,0,1,0,.781,1.24Z" transform="translate(-88.053 -105.012)" fill="#5b4794"/><path d="M419.573,279.915a.732.732,0,0,0-.223,1.012c1.847,2.894.88,6.992.866,7.047a.733.733,0,0,0,1.422.351c.047-.192,1.139-4.751-1.054-8.186A.732.732,0,0,0,419.573,279.915Z" transform="translate(-378.289 -252.976)" fill="#5b4794"/></g></g></svg>